<svg width="1440" height="1000" fill="none" xmlns="http://www.w3.org/2000/svg"><g clip-path="url(#a)"><path d="M1440 0H0v1000h1440V0Z" fill="url(#b)"/></g><g clip-path="url(#c)" fill-rule="evenodd" clip-rule="evenodd" fill="#fff" fill-opacity=".1"><path d="M940.195 482.898h-3.6l10.796-33.455c.723-2.182 2.789-3.672 5.224-3.704 2.017-.011 3.113-.009 5.133 0 4.372.019 6.055 1.739 7.075 4.572.49 1.36.532 3.278.131 4.55-1.039 3.196-1.285 3.937-2.338 7.127-.689 2.053-2.549 3.426-4.801 3.609 0 0 3.024-9.152 3.967-12.142.57-1.866-.524-4.412-3.4-4.412-2.012-.024-3.27-.011-5.277 0-1.163.015-2.183.725-2.541 1.806l-10.369 32.049Zm14.014-9.583h7.924l-4.475 13.61-3.632-.024 3.37-10.273h-4.29l1.103-3.313Z"/><path d="M971.851 455.982h3.602l-10.822 33.455c-.725 2.182-2.793 3.672-5.229 3.704-2.019.011-3.115.009-5.137 0-4.374-.019-6.057-1.739-7.076-4.572-.489-1.36-.53-3.278-.128-4.55 1.042-3.196 1.288-3.937 2.343-7.127.691-2.053 2.553-3.426 4.807-3.609 0 0-3.032 9.152-3.977 12.142-.571 1.866.521 4.412 3.4 4.412 2.013.024 3.271.011 5.28 0 1.163-.015 2.184-.725 2.543-1.806l10.394-32.049ZM769.038 678.124h-7.924l4.476-13.61 3.631.024-3.369 10.273h4.29l-1.104 3.313Z"/><path d="M751.396 695.457h-3.602l10.822-33.455c.725-2.182 2.793-3.672 5.229-3.704 2.019-.011 3.115-.009 5.137 0 4.374.019 6.057 1.739 7.076 4.572.49 1.36.531 3.278.129 4.55-1.042 3.196-1.289 3.937-2.344 7.127-.69 2.053-2.552 3.426-4.806 3.609 0 0 3.031-9.152 3.977-12.142.571-1.866-.522-4.412-3.4-4.412-2.013-.024-3.272-.011-5.28 0-1.163.015-2.185.725-2.544 1.806l-10.394 32.049Zm126.326-113.278h-7.924l4.475-13.609 3.632.023-3.37 10.274h4.29l-1.103 3.312Z"/><path d="M860.08 599.513h-3.602l10.822-33.455c.725-2.183 2.793-3.672 5.229-3.704 2.019-.011 3.115-.009 5.136 0 4.375.019 6.058 1.739 7.077 4.571.489 1.361.53 3.279.128 4.551-1.042 3.196-1.289 3.936-2.343 7.126-.691 2.054-2.553 3.427-4.807 3.61 0 0 3.032-9.152 3.977-12.142.571-1.866-.522-4.412-3.4-4.412-2.013-.024-3.271-.011-5.28 0-1.163.015-2.184.725-2.543 1.806l-10.394 32.049Zm42.801 11.236h7.924l-4.476 13.609-3.631-.023 3.37-10.274h-4.291l1.104-3.312Z"/><path d="M920.523 593.415h3.602l-10.822 33.455c-.725 2.183-2.793 3.672-5.229 3.705-2.019.01-3.115.008-5.137 0-4.374-.02-6.057-1.74-7.076-4.572-.489-1.361-.531-3.278-.129-4.55 1.043-3.197 1.289-3.937 2.344-7.127.691-2.053 2.553-3.427 4.807-3.61 0 0-3.032 9.152-3.977 12.142-.571 1.866.521 4.413 3.399 4.413 2.014.023 3.272.01 5.28 0 1.164-.015 2.185-.726 2.544-1.806l10.394-32.05ZM663.951 730.327h7.924l-4.476 13.61-3.631-.024 3.369-10.273h-4.29l1.104-3.313Z"/><path d="M681.593 712.994h3.602l-10.822 33.455c-.725 2.182-2.794 3.672-5.23 3.704-2.018.011-3.115.008-5.136 0-4.375-.02-6.058-1.739-7.076-4.572-.49-1.36-.531-3.278-.129-4.55 1.042-3.196 1.289-3.937 2.344-7.127.69-2.053 2.552-3.426 4.806-3.609 0 0-3.031 9.152-3.977 12.142-.571 1.866.522 4.412 3.4 4.412 2.013.024 3.272.011 5.28 0 1.163-.015 2.184-.725 2.544-1.806l10.394-32.049Zm120.235-59.2h7.924l-4.476 13.61-3.631-.024 3.369-10.274h-4.29l1.104-3.312Z"/><path d="M819.47 636.461h3.602l-10.822 33.454c-.725 2.183-2.794 3.672-5.23 3.705-2.019.01-3.115.008-5.136 0-4.375-.02-6.058-1.739-7.076-4.572-.49-1.36-.531-3.278-.129-4.55 1.042-3.197 1.289-3.937 2.344-7.127.69-2.053 2.552-3.426 4.806-3.609 0 0-3.032 9.152-3.977 12.141-.571 1.866.522 4.413 3.4 4.413 2.013.023 3.272.011 5.28 0 1.163-.015 2.184-.726 2.544-1.806l10.394-32.049Zm-97.74 133.948h7.924l-4.476 13.61-3.631-.024 3.37-10.274h-4.291l1.104-3.312Z"/><path d="M739.372 753.076h3.602l-10.822 33.454c-.725 2.183-2.794 3.672-5.23 3.705-2.019.01-3.115.008-5.136 0-4.375-.02-6.058-1.739-7.076-4.572-.49-1.36-.531-3.278-.129-4.55 1.042-3.197 1.289-3.937 2.344-7.127.69-2.053 2.552-3.426 4.806-3.609 0 0-3.032 9.152-3.977 12.141-.571 1.866.522 4.413 3.4 4.413 2.013.023 3.272.011 5.28 0 1.163-.015 2.184-.726 2.544-1.806l10.394-32.049ZM1005.4 471.637h-3.6l10.8-33.455c.72-2.183 2.79-3.672 5.22-3.704 2.02-.011 3.11-.009 5.13 0 4.38.019 6.06 1.739 7.08 4.571.49 1.361.53 3.278.13 4.55-1.04 3.197-1.29 3.937-2.34 7.127-.69 2.053-2.55 3.427-4.8 3.61 0 0 3.03-9.152 3.97-12.142.57-1.866-.53-4.413-3.4-4.413-2.01-.023-3.27-.01-5.28 0-1.16.015-2.18.726-2.54 1.806l-10.37 32.05Zm14-9.583h7.92l-4.47 13.609-3.64-.023 3.37-10.274h-4.29l1.11-3.312Z"/><path d="M1037.04 444.72h3.6l-10.82 33.455c-.73 2.183-2.79 3.672-5.23 3.704-2.02.011-3.12.009-5.14 0-4.37-.019-6.05-1.739-7.07-4.571-.49-1.361-.53-3.278-.13-4.55 1.04-3.197 1.29-3.937 2.34-7.127.69-2.053 2.55-3.427 4.81-3.61 0 0-3.03 9.152-3.98 12.142-.57 1.866.52 4.413 3.4 4.413 2.01.023 3.27.01 5.28 0 1.16-.016 2.19-.726 2.54-1.806l10.4-32.05Zm16.29 29.735h-7.93l4.48-13.609 3.63.023-3.37 10.274h4.29l-1.1 3.312Z"/><path d="M1035.68 491.789h-3.6l10.82-33.455c.73-2.183 2.8-3.672 5.23-3.704 2.02-.011 3.12-.009 5.14 0 4.37.019 6.06 1.739 7.08 4.571.48 1.361.53 3.278.12 4.55-1.04 3.197-1.28 3.937-2.34 7.127-.69 2.053-2.55 3.427-4.81 3.61 0 0 3.04-9.152 3.98-12.142.57-1.866-.52-4.412-3.4-4.412-2.01-.024-3.27-.011-5.28 0-1.16.015-2.18.725-2.54 1.805l-10.4 32.05ZM864.525 687.014h-7.924l4.476-13.609 3.631.023-3.369 10.274h4.29l-1.104 3.312Z"/><path d="M846.883 704.348h-3.601l10.822-33.455c.725-2.183 2.793-3.672 5.229-3.704 2.019-.011 3.115-.009 5.136 0 4.375.019 6.058 1.739 7.077 4.571.489 1.361.53 3.278.128 4.551-1.042 3.196-1.289 3.936-2.343 7.126-.691 2.054-2.553 3.427-4.807 3.61 0 0 3.032-9.152 3.977-12.142.571-1.866-.522-4.412-3.4-4.412-2.013-.024-3.271-.011-5.28 0-1.163.015-2.184.725-2.543 1.805l-10.395 32.05Zm-37.591-104.49h7.924l-4.476 13.61-3.631-.024 3.37-10.274h-4.291l1.104-3.312Z"/><path d="M826.934 582.525h3.602l-10.822 33.454c-.725 2.183-2.793 3.672-5.229 3.705-2.019.01-3.115.008-5.137 0-4.374-.02-6.057-1.74-7.076-4.572-.489-1.36-.531-3.278-.129-4.55 1.043-3.197 1.289-3.937 2.344-7.127.691-2.053 2.553-3.427 4.807-3.609 0 0-3.032 9.152-3.977 12.141-.572 1.866.521 4.413 3.399 4.413 2.014.023 3.272.01 5.28 0 1.164-.015 2.185-.726 2.544-1.806l10.394-32.049ZM624.121 804.667h-7.924l4.475-13.61 3.632.024-3.37 10.273h4.291l-1.104 3.313Z"/><path d="M606.479 822h-3.602l10.822-33.455c.725-2.182 2.793-3.672 5.229-3.704 2.019-.011 3.115-.009 5.137 0 4.374.019 6.057 1.739 7.076 4.571.489 1.361.531 3.279.128 4.551-1.042 3.196-1.288 3.936-2.343 7.126-.691 2.054-2.553 3.427-4.807 3.61 0 0 3.032-9.152 3.977-12.142.571-1.866-.521-4.412-3.399-4.412-2.014-.024-3.272-.011-5.281 0-1.163.015-2.184.725-2.543 1.806L606.479 822Zm344.005-304.129h-7.924l4.476-13.61 3.631.024-3.369 10.273h4.29l-1.104 3.313Z"/><path d="M932.842 535.204h-3.602l10.822-33.455c.725-2.182 2.794-3.672 5.23-3.704 2.019-.011 3.115-.008 5.136 0 4.375.02 6.058 1.739 7.076 4.572.49 1.36.531 3.278.129 4.55-1.042 3.196-1.289 3.937-2.344 7.127-.69 2.053-2.552 3.426-4.806 3.609 0 0 3.032-9.152 3.977-12.142.571-1.866-.522-4.412-3.4-4.412-2.013-.024-3.272-.011-5.28 0-1.163.015-2.184.725-2.544 1.806l-10.394 32.049ZM531.409 657.45h-3.6l10.799-33.455c.723-2.183 2.789-3.672 5.224-3.704 2.018-.011 3.113-.009 5.134 0 4.372.019 6.055 1.739 7.075 4.571.49 1.361.532 3.279.131 4.551-1.04 3.196-1.286 3.936-2.339 7.126-.689 2.054-2.549 3.427-4.802 3.61 0 0 3.025-9.152 3.968-12.142.57-1.866-.523-4.412-3.4-4.412-2.012-.024-3.27-.011-5.277 0-1.163.015-2.183.725-2.541 1.806l-10.372 32.049Zm14.017-9.583h7.924l-4.476 13.61-3.632-.024 3.37-10.273h-4.29l1.104-3.313Z"/><path d="M563.069 630.534h3.602l-10.824 33.454c-.725 2.183-2.793 3.672-5.229 3.705-2.019.01-3.116.008-5.137 0-4.375-.02-6.058-1.739-7.076-4.572-.49-1.36-.531-3.278-.129-4.55 1.042-3.197 1.289-3.937 2.344-7.127.691-2.053 2.553-3.426 4.807-3.609 0 0-3.032 9.152-3.978 12.141-.571 1.866.522 4.413 3.4 4.413 2.013.023 3.272.011 5.28 0 1.164-.015 2.185-.726 2.544-1.806l10.396-32.049Zm95.148-88.436h-7.925l4.477-13.61 3.632.024-3.371 10.273h4.291l-1.104 3.313Z"/><path d="M640.573 559.431h-3.603l10.826-33.455c.725-2.182 2.793-3.672 5.23-3.704 2.019-.011 3.115-.009 5.137 0 4.374.019 6.057 1.739 7.076 4.572.489 1.36.53 3.278.128 4.55-1.042 3.196-1.289 3.937-2.344 7.126-.691 2.054-2.553 3.427-4.807 3.61 0 0 3.032-9.152 3.978-12.142.571-1.866-.521-4.412-3.4-4.412-2.013-.024-3.272-.011-5.28 0-1.163.015-2.185.725-2.544 1.806l-10.397 32.049Zm14.034-9.583h7.924l-4.476 13.61-3.632-.024 3.37-10.273h-4.29l1.104-3.313Z"/><path d="M672.25 532.515h3.602l-10.824 33.455c-.725 2.182-2.794 3.672-5.23 3.704-2.019.011-3.115.008-5.136 0-4.375-.02-6.058-1.739-7.077-4.572-.489-1.36-.53-3.278-.128-4.55 1.042-3.196 1.289-3.937 2.344-7.127.691-2.053 2.553-3.426 4.807-3.609 0 0-3.032 9.152-3.978 12.142-.571 1.866.521 4.412 3.4 4.412 2.013.024 3.272.011 5.28 0 1.163-.015 2.185-.725 2.544-1.806l10.396-32.049Zm91.04-78.685h7.924l-4.476 13.61-3.631-.024 3.37-10.273h-4.291l1.104-3.313Z"/><path d="M780.932 436.497h3.602l-10.822 33.455c-.725 2.182-2.793 3.672-5.229 3.704-2.019.011-3.115.009-5.137 0-4.374-.019-6.057-1.739-7.076-4.572-.489-1.36-.531-3.278-.129-4.55 1.043-3.196 1.289-3.937 2.344-7.126.691-2.054 2.553-3.427 4.807-3.61 0 0-3.032 9.152-3.977 12.142-.572 1.866.521 4.412 3.399 4.412 2.014.024 3.272.011 5.28 0 1.164-.015 2.185-.725 2.544-1.806l10.394-32.049ZM578.119 658.712h-7.925l4.477-13.609 3.632.023-3.371 10.274h4.291l-1.104 3.312Z"/><path d="M560.475 676.046h-3.603l10.826-33.455c.725-2.183 2.793-3.672 5.23-3.704 2.019-.011 3.115-.009 5.137 0 4.374.019 6.057 1.739 7.076 4.571.489 1.361.53 3.278.128 4.551-1.042 3.196-1.289 3.936-2.344 7.126-.691 2.054-2.553 3.427-4.807 3.61 0 0 3.032-9.152 3.978-12.142.571-1.866-.521-4.412-3.4-4.412-2.013-.024-3.272-.011-5.28 0-1.163.015-2.185.725-2.544 1.805l-10.397 32.05Zm14.034-9.583h7.924l-4.476 13.61-3.632-.024 3.37-10.274h-4.29l1.104-3.312Z"/><path d="M592.152 649.13h3.602l-10.824 33.454c-.725 2.183-2.793 3.672-5.23 3.705-2.019.01-3.115.008-5.136 0-4.375-.02-6.058-1.74-7.077-4.572-.489-1.36-.53-3.278-.128-4.55 1.042-3.197 1.289-3.937 2.344-7.127.691-2.053 2.553-3.427 4.807-3.609 0 0-3.032 9.152-3.978 12.141-.571 1.866.522 4.413 3.4 4.413 2.013.023 3.272.01 5.28 0 1.163-.015 2.185-.726 2.544-1.806l10.396-32.049Zm94.742-85.547h-7.924l4.477-13.609 3.631.023-3.37 10.274h4.29l-1.104 3.312Z"/><path d="M669.25 580.917h-3.602l10.826-33.455c.725-2.183 2.793-3.672 5.229-3.704 2.019-.011 3.116-.009 5.137 0 4.375.019 6.058 1.739 7.077 4.571.489 1.361.53 3.278.128 4.55-1.043 3.197-1.289 3.937-2.344 7.127-.691 2.053-2.554 3.427-4.808 3.61 0 0 3.033-9.152 3.979-12.142.571-1.866-.522-4.413-3.4-4.413-2.013-.023-3.272-.01-5.28 0-1.164.016-2.185.726-2.544 1.806l-10.398 32.05Zm14.034-9.584h7.925l-4.477 13.61-3.631-.024 3.37-10.273h-4.291l1.104-3.313Z"/><path d="M700.927 554h3.602l-10.823 33.455c-.726 2.183-2.794 3.672-5.23 3.704-2.019.011-3.115.009-5.137 0-4.374-.019-6.057-1.739-7.076-4.571-.489-1.361-.531-3.278-.128-4.55 1.042-3.197 1.289-3.937 2.344-7.127.69-2.053 2.552-3.427 4.806-3.61 0 0-3.032 9.152-3.977 12.142-.571 1.866.521 4.413 3.4 4.413 2.013.023 3.271.01 5.28 0 1.163-.016 2.184-.726 2.544-1.806L700.927 554Zm94.669-86.361h-7.925l4.477-13.61 3.632.024-3.371 10.273h4.291l-1.104 3.313Z"/><path d="M777.952 484.972h-3.602l10.825-33.455c.726-2.182 2.794-3.672 5.23-3.704 2.019-.011 3.115-.008 5.137 0 4.375.02 6.058 1.739 7.076 4.572.49 1.36.531 3.278.129 4.55-1.043 3.196-1.29 3.937-2.345 7.127-.691 2.053-2.553 3.426-4.807 3.609 0 0 3.033-9.152 3.978-12.141.572-1.867-.521-4.413-3.399-4.413-2.014-.024-3.272-.011-5.281 0-1.163.015-2.184.725-2.544 1.806l-10.397 32.049Zm14.034-9.583h7.924l-4.476 13.61-3.632-.024 3.371-10.273h-4.291l1.104-3.313Z"/><path d="M809.629 458.056h3.602l-10.824 33.455c-.725 2.182-2.793 3.672-5.229 3.704-2.019.011-3.115.009-5.137 0-4.375-.019-6.058-1.739-7.076-4.572-.49-1.36-.531-3.278-.129-4.55 1.043-3.196 1.289-3.937 2.344-7.126.691-2.054 2.553-3.427 4.807-3.61 0 0-3.032 9.152-3.977 12.142-.572 1.866.521 4.412 3.399 4.412 2.014.024 3.272.011 5.281 0 1.163-.015 2.184-.725 2.543-1.806l10.396-32.049ZM606.796 680.198h-7.924l4.477-13.609 3.631.023-3.37 10.274h4.29l-1.104 3.312Z"/><path d="M589.152 697.531h-3.602l10.825-33.454c.726-2.183 2.794-3.672 5.23-3.704 2.019-.011 3.115-.009 5.137 0 4.375.019 6.058 1.739 7.077 4.571.489 1.361.53 3.278.128 4.55-1.043 3.197-1.289 3.937-2.345 7.127-.69 2.053-2.553 3.427-4.807 3.61 0 0 3.033-9.152 3.978-12.142.572-1.866-.521-4.413-3.399-4.413-2.013-.023-3.272-.01-5.281 0-1.163.015-2.184.726-2.543 1.806l-10.398 32.049Zm14.034-9.582h7.925l-4.477 13.609-3.631-.024 3.37-10.273h-4.291l1.104-3.312Z"/><path d="M620.829 670.615h3.602l-10.823 33.455c-.726 2.183-2.794 3.672-5.23 3.704-2.019.011-3.115.009-5.137 0-4.374-.019-6.057-1.739-7.076-4.571-.489-1.361-.531-3.278-.128-4.55 1.042-3.197 1.289-3.937 2.344-7.127.69-2.053 2.552-3.427 4.806-3.61 0 0-3.032 9.152-3.977 12.142-.571 1.866.521 4.413 3.399 4.413 2.014.023 3.272.01 5.281 0 1.163-.016 2.184-.726 2.544-1.806l10.395-32.05Zm94.853-86.212h-7.924l4.477-13.609 3.631.023-3.37 10.274h4.29l-1.104 3.312Z"/><path d="M698.038 601.737h-3.602l10.826-33.455c.725-2.183 2.793-3.672 5.229-3.704 2.019-.011 3.116-.009 5.137 0 4.375.019 6.058 1.739 7.077 4.571.489 1.361.53 3.278.128 4.55-1.043 3.197-1.289 3.937-2.344 7.127-.691 2.053-2.554 3.427-4.808 3.61 0 0 3.033-9.152 3.979-12.142.571-1.866-.522-4.412-3.4-4.412-2.013-.024-3.272-.011-5.28 0-1.164.015-2.185.725-2.544 1.805l-10.398 32.05Zm14.034-9.583h7.925l-4.477 13.609-3.631-.023 3.37-10.274h-4.291l1.104-3.312Z"/><path d="M729.716 574.82h3.602l-10.824 33.455c-.725 2.183-2.794 3.672-5.23 3.705-2.019.01-3.115.008-5.137 0-4.374-.02-6.057-1.74-7.076-4.572-.489-1.36-.53-3.278-.128-4.55 1.042-3.197 1.289-3.937 2.344-7.127.69-2.053 2.553-3.427 4.807-3.61 0 0-3.033 9.153-3.978 12.142-.571 1.866.521 4.413 3.4 4.413 2.013.023 3.271.01 5.28 0 1.163-.015 2.184-.726 2.544-1.806l10.396-32.05Zm94.65-86.362h-7.925l4.477-13.609 3.632.023-3.371 10.274h4.291l-1.104 3.312Z"/><path d="M806.722 505.792h-3.603l10.826-33.455c.725-2.183 2.794-3.672 5.23-3.704 2.019-.011 3.115-.009 5.137 0 4.374.019 6.057 1.739 7.076 4.571.489 1.361.53 3.278.128 4.55-1.042 3.197-1.289 3.937-2.344 7.127-.691 2.053-2.553 3.427-4.807 3.61 0 0 3.032-9.152 3.978-12.142.571-1.866-.521-4.413-3.4-4.413-2.013-.023-3.272-.01-5.28 0-1.163.016-2.185.726-2.544 1.806l-10.397 32.05Zm14.034-9.583h7.924l-4.476 13.609-3.632-.023 3.37-10.274h-4.29l1.104-3.312Z"/><path d="M838.399 478.875h3.602l-10.824 33.455c-.725 2.183-2.793 3.672-5.23 3.704-2.019.011-3.115.009-5.136 0-4.375-.019-6.058-1.739-7.077-4.571-.489-1.361-.53-3.278-.128-4.55 1.042-3.197 1.289-3.937 2.344-7.127.691-2.053 2.553-3.427 4.807-3.61 0 0-3.032 9.152-3.978 12.142-.571 1.866.522 4.413 3.4 4.413 2.013.023 3.272.01 5.28 0 1.163-.016 2.185-.726 2.544-1.806l10.396-32.05ZM635.584 701.017h-7.924l4.477-13.61 3.631.024-3.37 10.273h4.29l-1.104 3.313Z"/><path d="M617.94 718.35h-3.602l10.826-33.455c.725-2.182 2.793-3.672 5.229-3.704 2.019-.011 3.116-.008 5.137 0 4.375.019 6.058 1.739 7.077 4.572.489 1.36.53 3.278.128 4.55-1.043 3.196-1.289 3.937-2.344 7.127-.691 2.053-2.554 3.426-4.808 3.609 0 0 3.033-9.152 3.979-12.142.571-1.866-.522-4.412-3.4-4.412-2.013-.024-3.272-.011-5.28 0-1.164.015-2.185.725-2.544 1.806L617.94 718.35Zm14.034-9.583h7.925l-4.477 13.61-3.631-.024 3.37-10.273h-4.291l1.104-3.313Z"/><path d="M649.617 691.434h3.602l-10.823 33.455c-.726 2.182-2.794 3.672-5.23 3.704-2.019.011-3.115.009-5.137 0-4.374-.019-6.057-1.739-7.076-4.572-.489-1.36-.531-3.278-.128-4.55 1.042-3.196 1.289-3.937 2.344-7.126.69-2.054 2.552-3.427 4.806-3.61 0 0-3.032 9.152-3.977 12.142-.571 1.866.521 4.412 3.4 4.412 2.013.024 3.271.011 5.28 0 1.163-.015 2.184-.725 2.544-1.806l10.395-32.049Zm96.365-86.88h-7.925l4.477-13.61 3.632.024-3.371 10.273h4.291l-1.104 3.313Z"/><path d="M728.338 621.887h-3.603l10.826-33.454c.725-2.183 2.793-3.672 5.23-3.705 2.019-.011 3.115-.008 5.137 0 4.374.02 6.057 1.739 7.076 4.572.489 1.36.53 3.278.128 4.55-1.042 3.196-1.289 3.937-2.344 7.127-.691 2.053-2.553 3.426-4.807 3.609 0 0 3.032-9.152 3.978-12.141.571-1.867-.521-4.413-3.4-4.413-2.013-.024-3.272-.011-5.28 0-1.163.015-2.185.726-2.544 1.806l-10.397 32.049Zm14.033-9.583h7.925l-4.476 13.61-3.632-.024 3.37-10.273h-4.29l1.103-3.313Z"/><path d="M760.015 594.971h3.602l-10.824 33.455c-.725 2.182-2.794 3.672-5.23 3.704-2.019.011-3.115.009-5.136 0-4.375-.019-6.058-1.739-7.077-4.572-.489-1.36-.53-3.278-.128-4.55 1.042-3.196 1.289-3.936 2.344-7.126.691-2.054 2.553-3.427 4.807-3.61 0 0-3.032 9.152-3.978 12.142-.571 1.866.521 4.412 3.4 4.412 2.013.024 3.272.011 5.28 0 1.163-.015 2.185-.725 2.544-1.806l10.396-32.049Zm94.669-86.361h-7.925l4.477-13.609 3.632.023-3.371 10.274h4.291l-1.104 3.312Z"/><path d="M837.039 525.944h-3.602l10.826-33.455c.725-2.183 2.793-3.672 5.23-3.704 2.019-.011 3.115-.009 5.137 0 4.374.019 6.057 1.739 7.076 4.571.489 1.361.53 3.278.128 4.55-1.042 3.197-1.289 3.937-2.344 7.127-.691 2.053-2.553 3.427-4.807 3.61 0 0 3.032-9.152 3.978-12.142.571-1.866-.521-4.412-3.4-4.412-2.013-.024-3.272-.011-5.28 0-1.163.015-2.185.725-2.544 1.805l-10.398 32.05Zm14.034-9.584h7.925l-4.476 13.609-3.632-.023 3.37-10.274h-4.29l1.103-3.312Z"/><path d="M868.717 499.027h3.602l-10.824 33.455c-.725 2.182-2.793 3.672-5.23 3.704-2.019.011-3.115.008-5.136 0-4.375-.02-6.058-1.739-7.077-4.572-.489-1.36-.53-3.278-.128-4.55 1.042-3.196 1.289-3.937 2.344-7.127.691-2.053 2.553-3.426 4.807-3.609 0 0-3.032 9.152-3.978 12.141-.571 1.867.522 4.413 3.4 4.413 2.013.024 3.272.011 5.28 0 1.163-.015 2.185-.725 2.544-1.806l10.396-32.049ZM585.454 608.036h-7.925l4.477-13.609 3.632.023-3.371 10.274h4.291l-1.104 3.312Z"/><path d="M567.81 625.37h-3.602l10.825-33.455c.725-2.183 2.794-3.672 5.23-3.705 2.019-.01 3.115-.008 5.137 0 4.375.02 6.058 1.74 7.076 4.572.489 1.36.531 3.278.128 4.55-1.042 3.197-1.289 3.937-2.344 7.127-.691 2.053-2.553 3.427-4.807 3.61 0 0 3.033-9.153 3.978-12.142.571-1.866-.521-4.413-3.4-4.413-2.013-.023-3.271-.01-5.28 0-1.163.015-2.185.726-2.544 1.806l-10.397 32.05Zm14.034-9.583h7.924l-4.476 13.609-3.632-.023 3.371-10.274h-4.291l1.104-3.312Z"/><path d="M599.487 598.453h3.602l-10.824 33.455c-.725 2.183-2.793 3.672-5.229 3.704-2.019.011-3.115.009-5.137 0-4.375-.019-6.058-1.739-7.076-4.571-.49-1.361-.531-3.278-.129-4.551 1.042-3.196 1.289-3.936 2.344-7.126.691-2.054 2.553-3.427 4.807-3.61 0 0-3.032 9.152-3.977 12.142-.572 1.866.521 4.412 3.399 4.412 2.013.024 3.272.011 5.28 0 1.164-.015 2.185-.725 2.544-1.805l10.396-32.05Zm95.148-88.509h-7.925l4.477-13.61 3.632.024-3.371 10.273h4.291l-1.104 3.313Z"/><path d="M676.991 527.277h-3.602l10.825-33.455c.725-2.182 2.794-3.672 5.23-3.704 2.019-.011 3.115-.008 5.137 0 4.375.019 6.058 1.739 7.076 4.572.49 1.36.531 3.278.129 4.55-1.043 3.196-1.29 3.937-2.345 7.127-.691 2.053-2.553 3.426-4.807 3.609 0 0 3.033-9.152 3.978-12.142.572-1.866-.521-4.412-3.399-4.412-2.014-.024-3.272-.011-5.281 0-1.163.015-2.184.725-2.544 1.806l-10.397 32.049Zm14.034-9.583h7.924l-4.476 13.609-3.632-.023 3.371-10.274h-4.291l1.104-3.312Z"/><path d="M708.668 500.36h3.602l-10.824 33.455c-.725 2.183-2.793 3.672-5.229 3.704-2.019.011-3.115.009-5.137 0-4.375-.019-6.058-1.739-7.076-4.571-.49-1.361-.531-3.278-.129-4.551 1.043-3.196 1.289-3.936 2.344-7.126.691-2.054 2.553-3.427 4.807-3.61 0 0-3.032 9.152-3.977 12.142-.572 1.866.521 4.412 3.399 4.412 2.014.024 3.272.011 5.281 0 1.163-.015 2.184-.725 2.543-1.805l10.396-32.05Zm-94.131 126.198h-7.925l4.477-13.61 3.632.024-3.371 10.274h4.291l-1.104 3.312Z"/><path d="M596.893 643.892h-3.602l10.825-33.455c.725-2.183 2.794-3.672 5.23-3.705 2.019-.01 3.115-.008 5.137 0 4.375.02 6.058 1.74 7.076 4.572.489 1.36.531 3.278.128 4.55-1.042 3.197-1.289 3.937-2.344 7.127-.691 2.053-2.553 3.427-4.807 3.609 0 0 3.033-9.152 3.978-12.141.571-1.866-.521-4.413-3.4-4.413-2.013-.023-3.271-.01-5.28 0-1.163.015-2.185.726-2.544 1.806l-10.397 32.05Zm14.034-9.583h7.924l-4.476 13.609-3.632-.023 3.371-10.274h-4.291l1.104-3.312Z"/><path d="M628.57 616.975h3.602l-10.824 33.455c-.725 2.183-2.793 3.672-5.229 3.704-2.019.011-3.115.009-5.137 0-4.375-.019-6.058-1.739-7.076-4.571-.49-1.361-.531-3.278-.129-4.551 1.042-3.196 1.289-3.936 2.344-7.126.691-2.054 2.553-3.427 4.807-3.61 0 0-3.032 9.152-3.977 12.142-.572 1.866.521 4.412 3.399 4.412 2.013.024 3.272.011 5.28 0 1.164-.015 2.185-.725 2.544-1.805l10.396-32.05Zm-80.558 116.393h3.599l-10.796 33.455c-.723 2.182-2.789 3.672-5.223 3.704-2.018.011-3.114.009-5.134 0-4.372-.019-6.055-1.739-7.075-4.572-.49-1.36-.532-3.278-.131-4.55 1.04-3.196 1.286-3.937 2.338-7.126.689-2.054 2.549-3.427 4.802-3.61 0 0-3.025 9.152-3.968 12.142-.57 1.866.524 4.412 3.4 4.412 2.013.024 3.27.011 5.277 0 1.163-.015 2.183-.725 2.542-1.806l10.369-32.049Zm175.301-201.865h-7.925l4.477-13.61 3.632.024-3.371 10.273h4.291l-1.104 3.313Z"/><path d="M705.668 548.836h-3.602l10.826-33.455c.725-2.182 2.793-3.672 5.23-3.704 2.019-.011 3.115-.008 5.136 0 4.375.02 6.058 1.739 7.077 4.572.489 1.36.53 3.278.128 4.55-1.042 3.196-1.289 3.937-2.344 7.127-.691 2.053-2.553 3.426-4.807 3.609 0 0 3.032-9.152 3.978-12.141.571-1.867-.522-4.413-3.4-4.413-2.013-.024-3.272-.011-5.28 0-1.164.015-2.185.726-2.544 1.806l-10.398 32.049Zm14.034-9.583h7.925l-4.476 13.61-3.632-.024 3.37-10.273h-4.29l1.103-3.313Z"/><path d="M737.346 521.92h3.602l-10.824 33.455c-.725 2.182-2.794 3.672-5.23 3.704-2.019.011-3.115.009-5.137 0-4.374-.019-6.057-1.739-7.076-4.572-.489-1.36-.53-3.278-.128-4.55 1.042-3.196 1.289-3.936 2.344-7.126.69-2.054 2.553-3.427 4.807-3.61 0 0-3.033 9.152-3.978 12.142-.571 1.866.521 4.412 3.4 4.412 2.013.024 3.272.011 5.28 0 1.163-.015 2.185-.725 2.544-1.806l10.396-32.049Zm-94.131 126.198h-7.925l4.477-13.61 3.632.024-3.371 10.273h4.291l-1.104 3.313Z"/><path d="M625.57 665.451h-3.602l10.826-33.455c.725-2.182 2.793-3.672 5.23-3.704 2.019-.011 3.115-.008 5.136 0 4.375.02 6.058 1.739 7.077 4.572.489 1.36.53 3.278.128 4.55-1.042 3.196-1.289 3.937-2.344 7.127-.691 2.053-2.553 3.426-4.807 3.609 0 0 3.032-9.152 3.978-12.141.571-1.867-.521-4.413-3.4-4.413-2.013-.024-3.272-.011-5.28 0-1.164.015-2.185.726-2.544 1.806l-10.398 32.049Zm14.035-9.583h7.924l-4.476 13.61-3.632-.024 3.37-10.273h-4.29l1.104-3.313Z"/><path d="M657.248 638.535h3.602l-10.824 33.455c-.725 2.182-2.794 3.672-5.23 3.704-2.019.011-3.115.009-5.137 0-4.374-.019-6.057-1.739-7.076-4.572-.489-1.36-.53-3.278-.128-4.55 1.042-3.196 1.289-3.936 2.344-7.126.69-2.054 2.553-3.427 4.807-3.61 0 0-3.033 9.152-3.978 12.142-.571 1.866.521 4.412 3.4 4.412 2.013.024 3.271.011 5.28 0 1.163-.015 2.185-.725 2.544-1.806l10.396-32.049Zm-94.463 125.309h-7.925l4.477-13.61 3.632.024-3.371 10.273h4.291l-1.104 3.313Z"/><path d="M545.141 781.177h-3.603l10.826-33.455c.725-2.182 2.793-3.672 5.23-3.704 2.019-.011 3.115-.009 5.137 0 4.374.019 6.057 1.739 7.076 4.571.489 1.361.53 3.279.128 4.551-1.042 3.196-1.289 3.936-2.344 7.126-.691 2.054-2.553 3.427-4.807 3.61 0 0 3.032-9.152 3.978-12.142.571-1.866-.521-4.412-3.4-4.412-2.013-.024-3.272-.011-5.28 0-1.163.015-2.185.725-2.544 1.806l-10.397 32.049Zm14.034-9.583h7.924l-4.476 13.61-3.632-.024 3.37-10.273h-4.29l1.104-3.313Z"/><path d="M576.818 754.261h3.602l-10.824 33.454c-.725 2.183-2.793 3.672-5.23 3.705-2.019.01-3.115.008-5.136 0-4.375-.02-6.058-1.739-7.077-4.572-.489-1.36-.53-3.278-.128-4.55 1.042-3.196 1.289-3.937 2.344-7.127.691-2.053 2.553-3.426 4.807-3.609 0 0-3.032 9.152-3.978 12.141-.571 1.867.522 4.413 3.4 4.413 2.013.023 3.272.011 5.28 0 1.163-.015 2.185-.726 2.544-1.806l10.396-32.049Zm175.283-201.939h-7.925l4.477-13.61 3.632.024-3.371 10.273h4.291l-1.104 3.313Z"/><path d="M734.456 569.655h-3.602L741.68 536.2c.725-2.182 2.793-3.672 5.23-3.704 2.019-.011 3.115-.009 5.137 0 4.374.019 6.057 1.739 7.076 4.572.489 1.36.53 3.278.128 4.55-1.042 3.196-1.289 3.937-2.344 7.127-.691 2.053-2.553 3.426-4.807 3.609 0 0 3.032-9.152 3.978-12.142.571-1.866-.521-4.412-3.4-4.412-2.013-.024-3.272-.011-5.28 0-1.163.015-2.185.725-2.544 1.806l-10.398 32.049Zm14.035-9.583h7.924l-4.476 13.61-3.632-.024 3.37-10.273h-4.29l1.104-3.313Z"/><path d="M766.134 542.739h3.602l-10.824 33.455c-.725 2.182-2.793 3.672-5.23 3.704-2.019.011-3.115.009-5.136 0-4.375-.019-6.058-1.739-7.077-4.572-.489-1.36-.53-3.278-.128-4.55 1.042-3.196 1.289-3.937 2.344-7.127.691-2.053 2.553-3.426 4.807-3.609 0 0-3.032 9.152-3.978 12.142-.571 1.866.522 4.412 3.4 4.412 2.013.024 3.272.011 5.28 0 1.163-.015 2.185-.725 2.544-1.806l10.396-32.049Zm77.023-69.027h-3.6l10.799-33.455c.723-2.183 2.79-3.672 5.224-3.705 2.018-.01 3.114-.008 5.134 0 4.372.02 6.055 1.74 7.075 4.572.49 1.36.532 3.278.131 4.55-1.04 3.197-1.286 3.937-2.338 7.127-.69 2.053-2.55 3.427-4.803 3.61 0 0 3.026-9.152 3.969-12.142.57-1.866-.524-4.413-3.4-4.413-2.013-.023-3.27-.01-5.278 0-1.162.015-2.183.726-2.541 1.806l-10.372 32.05Zm14.017-9.583h7.924l-4.476 13.609-3.632-.023 3.371-10.274h-4.291l1.104-3.312Z"/><path d="M874.817 446.795h3.602l-10.824 33.455c-.725 2.183-2.793 3.672-5.229 3.704-2.019.011-3.115.009-5.137 0-4.375-.019-6.058-1.739-7.076-4.571-.49-1.361-.531-3.278-.129-4.55 1.042-3.197 1.289-3.937 2.344-7.127.691-2.054 2.553-3.427 4.807-3.61 0 0-3.032 9.152-3.978 12.142-.571 1.866.522 4.412 3.4 4.412 2.013.024 3.272.011 5.28 0 1.164-.015 2.185-.725 2.544-1.805l10.396-32.05ZM671.984 668.937h-7.924l4.477-13.61 3.631.024-3.37 10.273h4.29l-1.104 3.313Z"/><path d="M654.34 686.27h-3.602l10.825-33.455c.726-2.182 2.794-3.672 5.23-3.704 2.019-.011 3.115-.009 5.137 0 4.375.019 6.058 1.739 7.077 4.572.489 1.36.53 3.278.128 4.55-1.043 3.196-1.289 3.937-2.345 7.127-.69 2.053-2.553 3.426-4.807 3.609 0 0 3.033-9.152 3.978-12.142.572-1.866-.521-4.412-3.399-4.412-2.013-.024-3.272-.011-5.281 0-1.163.015-2.184.725-2.543 1.806L654.34 686.27Zm14.034-9.583h7.925l-4.477 13.61-3.631-.024 3.37-10.273h-4.291l1.104-3.313Z"/><path d="M686.018 659.354h3.602l-10.824 33.455c-.725 2.182-2.794 3.672-5.23 3.704-2.019.011-3.115.009-5.137 0-4.374-.019-6.057-1.739-7.076-4.572-.489-1.36-.53-3.278-.128-4.55 1.042-3.196 1.289-3.937 2.344-7.127.69-2.053 2.553-3.426 4.807-3.609 0 0-3.033 9.152-3.978 12.142-.571 1.866.521 4.412 3.4 4.412 2.013.024 3.271.011 5.28 0 1.163-.015 2.184-.725 2.544-1.806l10.396-32.049Zm96.382-86.88h-7.925l4.477-13.61 3.632.024-3.371 10.273h4.291l-1.104 3.313Z"/><path d="M764.756 589.807h-3.602l10.825-33.455c.725-2.182 2.794-3.672 5.23-3.704 2.019-.011 3.115-.009 5.137 0 4.375.019 6.058 1.739 7.076 4.572.49 1.36.531 3.278.129 4.55-1.043 3.196-1.29 3.937-2.345 7.126-.691 2.054-2.553 3.427-4.807 3.61 0 0 3.033-9.152 3.978-12.142.572-1.866-.521-4.412-3.399-4.412-2.014-.024-3.272-.011-5.281 0-1.163.015-2.184.725-2.544 1.806l-10.397 32.049Zm14.034-9.583h7.925l-4.477 13.61-3.631-.024 3.37-10.273h-4.291l1.104-3.313Z"/><path d="M796.433 562.891h3.602l-10.824 33.455c-.725 2.182-2.793 3.672-5.229 3.704-2.019.011-3.115.008-5.137 0-4.375-.02-6.058-1.739-7.076-4.572-.49-1.36-.531-3.278-.129-4.55 1.043-3.196 1.289-3.937 2.344-7.127.691-2.053 2.553-3.426 4.807-3.609 0 0-3.032 9.152-3.977 12.142-.572 1.866.521 4.412 3.399 4.412 2.014.024 3.272.011 5.281 0 1.163-.015 2.184-.725 2.543-1.806l10.396-32.049Zm94.669-86.361h-7.925l4.477-13.61 3.632.024-3.371 10.273h4.291l-1.104 3.313Z"/><path d="M873.458 493.863h-3.602l10.825-33.455c.725-2.182 2.794-3.672 5.23-3.704 2.019-.011 3.115-.009 5.137 0 4.375.019 6.058 1.739 7.076 4.572.489 1.36.531 3.278.128 4.55-1.042 3.196-1.289 3.936-2.344 7.126-.691 2.054-2.553 3.427-4.807 3.61 0 0 3.033-9.152 3.978-12.142.571-1.866-.521-4.412-3.4-4.412-2.013-.024-3.271-.011-5.28 0-1.163.015-2.185.725-2.544 1.806l-10.397 32.049Zm14.034-9.583h7.924l-4.476 13.61-3.632-.024 3.37-10.273h-4.29l1.104-3.313Z"/><path d="M905.135 466.947h3.602l-10.824 33.454c-.725 2.183-2.793 3.672-5.23 3.705-2.019.011-3.115.008-5.136 0-4.375-.02-6.058-1.739-7.077-4.572-.489-1.36-.53-3.278-.128-4.55 1.042-3.196 1.289-3.937 2.344-7.127.691-2.053 2.553-3.426 4.807-3.609 0 0-3.032 9.152-3.978 12.141-.571 1.867.522 4.413 3.4 4.413 2.013.024 3.272.011 5.28 0 1.163-.015 2.185-.726 2.544-1.806l10.396-32.049ZM622.093 573.511h-7.924l4.477-13.61 3.631.024-3.37 10.273h4.291l-1.105 3.313Z"/><path d="M604.449 590.844h-3.602l10.826-33.454c.725-2.183 2.793-3.672 5.229-3.705 2.019-.01 3.116-.008 5.137 0 4.375.02 6.058 1.739 7.077 4.572.489 1.36.53 3.278.128 4.55-1.043 3.196-1.289 3.937-2.344 7.127-.691 2.053-2.554 3.426-4.808 3.609 0 0 3.033-9.152 3.979-12.141.571-1.867-.522-4.413-3.4-4.413-2.013-.024-3.272-.011-5.28 0-1.164.015-2.185.726-2.544 1.806l-10.398 32.049Zm14.034-9.582h7.925l-4.477 13.609-3.631-.024 3.37-10.273h-4.291l1.104-3.312Z"/><path d="M636.127 563.928h3.602l-10.824 33.455c-.725 2.182-2.794 3.672-5.23 3.704-2.019.011-3.115.009-5.137 0-4.374-.019-6.057-1.739-7.076-4.572-.489-1.36-.53-3.278-.128-4.55 1.042-3.196 1.289-3.936 2.344-7.126.69-2.054 2.553-3.427 4.807-3.61 0 0-3.033 9.152-3.978 12.142-.571 1.866.521 4.412 3.4 4.412 2.013.024 3.271.011 5.28 0 1.163-.015 2.184-.725 2.544-1.806l10.396-32.049Zm94.668-86.361h-7.924l4.476-13.609 3.632.023-3.371 10.274h4.291l-1.104 3.312Z"/><path d="M713.151 494.901h-3.602l10.825-33.455c.726-2.183 2.794-3.672 5.23-3.704 2.019-.011 3.115-.009 5.137 0 4.375.019 6.058 1.739 7.076 4.571.49 1.361.531 3.278.129 4.551-1.043 3.196-1.289 3.936-2.345 7.126-.69 2.054-2.553 3.427-4.807 3.61 0 0 3.033-9.152 3.978-12.142.572-1.866-.521-4.412-3.399-4.412-2.014-.024-3.272-.011-5.281 0-1.163.015-2.184.725-2.544 1.805l-10.397 32.05Zm14.034-9.583h7.925l-4.477 13.609-3.631-.023 3.37-10.274h-4.291l1.104-3.312Z"/><path d="M744.828 467.985h3.602l-10.823 33.454c-.726 2.183-2.794 3.672-5.23 3.705-2.019.01-3.115.008-5.137 0-4.374-.02-6.057-1.74-7.076-4.572-.489-1.36-.531-3.278-.128-4.55 1.042-3.197 1.289-3.937 2.344-7.127.69-2.053 2.552-3.427 4.806-3.609 0 0-3.032 9.152-3.977 12.141-.571 1.866.521 4.413 3.4 4.413 2.013.023 3.271.01 5.28 0 1.163-.015 2.184-.726 2.544-1.806l10.395-32.049ZM524.369 707.46h-3.6l10.798-33.455c.724-2.183 2.79-3.672 5.225-3.705 2.018-.011 3.113-.008 5.134 0 4.372.02 6.055 1.739 7.074 4.572.49 1.36.533 3.278.131 4.55-1.039 3.196-1.286 3.937-2.338 7.127-.689 2.053-2.55 3.426-4.802 3.609 0 0 3.025-9.152 3.968-12.141.57-1.867-.523-4.413-3.4-4.413-2.012-.023-3.27-.011-5.277 0-1.163.015-2.183.726-2.542 1.806l-10.371 32.05Zm31.624-26.917h3.6l-10.797 33.455c-.724 2.182-2.79 3.672-5.225 3.704-2.017.011-3.113.009-5.133 0-4.372-.019-6.055-1.739-7.075-4.572-.49-1.36-.532-3.278-.131-4.55 1.039-3.196 1.285-3.937 2.338-7.126.689-2.054 2.549-3.427 4.802-3.61 0 0-3.025 9.152-3.968 12.142-.57 1.866.524 4.412 3.4 4.412 2.012.024 3.27.011 5.277 0 1.163-.015 2.183-.725 2.542-1.806l10.37-32.049Zm94.796-85.472h-7.924l4.477-13.61 3.631.024-3.37 10.273h4.29l-1.104 3.313Z"/><path d="M633.145 612.404h-3.602l10.826-33.455c.725-2.182 2.793-3.672 5.229-3.704 2.019-.011 3.116-.009 5.137 0 4.375.019 6.058 1.739 7.077 4.572.489 1.36.53 3.278.128 4.55-1.043 3.196-1.289 3.936-2.344 7.126-.691 2.054-2.554 3.427-4.808 3.61 0 0 3.033-9.152 3.978-12.142.572-1.866-.521-4.412-3.399-4.412-2.013-.024-3.272-.011-5.281 0-1.163.015-2.184.725-2.543 1.806l-10.398 32.049Zm14.034-9.583h7.925l-4.477 13.609-3.631-.023 3.37-10.274h-4.291l1.104-3.312Z"/><path d="M664.822 585.488h3.603l-10.824 33.454c-.726 2.183-2.794 3.672-5.23 3.705-2.019.011-3.115.008-5.137 0-4.374-.02-6.057-1.739-7.076-4.572-.489-1.36-.531-3.278-.128-4.55 1.042-3.196 1.289-3.937 2.344-7.127.69-2.053 2.552-3.426 4.806-3.609 0 0-3.032 9.152-3.977 12.141-.571 1.867.521 4.413 3.4 4.413 2.013.024 3.271.011 5.28 0 1.163-.015 2.184-.726 2.544-1.806l10.395-32.049Zm94.651-86.435h-7.925l4.477-13.61 3.632.024-3.371 10.273h4.291l-1.104 3.313Z"/><path d="M741.829 516.386h-3.603l10.826-33.454c.725-2.183 2.794-3.672 5.23-3.705 2.019-.011 3.115-.008 5.137 0 4.375.02 6.058 1.739 7.076 4.572.489 1.36.531 3.278.128 4.55-1.042 3.196-1.289 3.937-2.344 7.127-.691 2.053-2.553 3.426-4.807 3.609 0 0 3.032-9.152 3.978-12.141.571-1.867-.521-4.413-3.4-4.413-2.013-.024-3.271-.011-5.28 0-1.163.015-2.185.726-2.544 1.806l-10.397 32.049Zm14.034-9.583h7.924l-4.476 13.609-3.632-.023 3.371-10.274h-4.291l1.104-3.312Z"/><path d="M773.506 489.469h3.602l-10.824 33.455c-.725 2.183-2.793 3.672-5.23 3.704-2.019.011-3.115.009-5.136 0-4.375-.019-6.058-1.739-7.077-4.571-.489-1.361-.53-3.278-.128-4.55 1.042-3.197 1.289-3.937 2.344-7.127.691-2.053 2.553-3.427 4.807-3.61 0 0-3.032 9.152-3.978 12.142-.571 1.866.522 4.413 3.4 4.413 2.013.023 3.272.01 5.28 0 1.163-.016 2.185-.726 2.544-1.806l10.396-32.05ZM570.673 711.686h-7.925l4.477-13.61 3.632.024-3.371 10.273h4.291l-1.104 3.313Z"/><path d="M553.029 729.019h-3.602l10.825-33.455c.725-2.182 2.794-3.672 5.23-3.704 2.019-.011 3.115-.009 5.137 0 4.375.019 6.058 1.739 7.076 4.572.489 1.36.531 3.278.128 4.55-1.042 3.196-1.289 3.937-2.344 7.126-.691 2.054-2.553 3.427-4.807 3.61 0 0 3.033-9.152 3.978-12.142.571-1.866-.521-4.412-3.4-4.412-2.013-.024-3.271-.011-5.28 0-1.163.015-2.185.725-2.544 1.806l-10.397 32.049Zm14.034-9.583h7.924l-4.476 13.61-3.632-.024 3.371-10.273h-4.291l1.104-3.313Z"/><path d="M584.706 702.103h3.602l-10.824 33.454c-.725 2.183-2.793 3.672-5.229 3.705-2.019.011-3.115.008-5.137 0-4.375-.02-6.058-1.739-7.076-4.572-.49-1.36-.531-3.278-.129-4.55 1.042-3.196 1.289-3.937 2.344-7.127.691-2.053 2.553-3.426 4.807-3.609 0 0-3.032 9.152-3.977 12.141-.572 1.867.521 4.413 3.399 4.413 2.013.024 3.272.011 5.28 0 1.164-.015 2.185-.726 2.544-1.806l10.396-32.049Zm94.853-86.214h-7.925l4.477-13.609 3.632.023-3.371 10.274h4.291l-1.104 3.312Z"/><path d="M661.915 633.223h-3.602l10.825-33.455c.725-2.183 2.794-3.672 5.23-3.704 2.019-.011 3.115-.009 5.137 0 4.375.019 6.058 1.739 7.076 4.571.49 1.361.531 3.278.129 4.551-1.043 3.196-1.29 3.936-2.345 7.126-.691 2.054-2.553 3.427-4.807 3.61 0 0 3.033-9.152 3.978-12.142.571-1.866-.521-4.412-3.399-4.412-2.014-.024-3.272-.011-5.281 0-1.163.015-2.184.725-2.544 1.805l-10.397 32.05Zm14.034-9.583h7.924l-4.476 13.609-3.632-.023 3.371-10.274h-4.291l1.104-3.312Z"/><path d="M693.592 606.307h3.602l-10.824 33.454c-.725 2.183-2.793 3.672-5.229 3.705-2.019.01-3.115.008-5.137 0-4.375-.02-6.058-1.74-7.076-4.572-.49-1.36-.531-3.278-.129-4.55 1.043-3.197 1.289-3.937 2.344-7.127.691-2.053 2.553-3.427 4.807-3.609 0 0-3.032 9.152-3.977 12.141-.572 1.866.521 4.413 3.399 4.413 2.014.023 3.272.01 5.281 0 1.163-.015 2.184-.726 2.543-1.806l10.396-32.049Zm94.65-86.362h-7.924l4.477-13.61 3.631.024-3.37 10.274h4.29l-1.104 3.312Z"/><path d="M770.598 537.278h-3.602l10.826-33.454c.725-2.183 2.793-3.672 5.229-3.705 2.02-.01 3.116-.008 5.137 0 4.375.02 6.058 1.739 7.077 4.572.489 1.36.53 3.278.128 4.55-1.042 3.197-1.289 3.937-2.344 7.127-.691 2.053-2.553 3.426-4.808 3.609 0 0 3.033-9.152 3.979-12.141.571-1.866-.522-4.413-3.4-4.413-2.013-.023-3.272-.011-5.28 0-1.164.015-2.185.726-2.544 1.806l-10.398 32.049Zm14.035-9.582h7.924l-4.476 13.609-3.632-.023 3.37-10.274h-4.29l1.104-3.312Z"/><path d="M802.276 510.362h3.602l-10.824 33.455c-.725 2.183-2.794 3.672-5.23 3.704-2.019.011-3.115.009-5.137 0-4.374-.019-6.057-1.739-7.076-4.571-.489-1.361-.53-3.279-.128-4.551 1.042-3.196 1.289-3.936 2.344-7.126.69-2.054 2.553-3.427 4.807-3.61 0 0-3.033 9.152-3.978 12.142-.571 1.866.521 4.412 3.4 4.412 2.013.024 3.271.011 5.28 0 1.163-.015 2.185-.725 2.544-1.806l10.396-32.049ZM599.443 732.504h-7.925l4.477-13.609 3.632.023-3.371 10.274h4.291l-1.104 3.312Z"/><path d="M581.798 749.838h-3.602l10.826-33.455c.725-2.183 2.793-3.672 5.23-3.704 2.019-.011 3.115-.009 5.136 0 4.375.019 6.058 1.739 7.077 4.571.489 1.361.53 3.278.128 4.551-1.042 3.196-1.289 3.936-2.344 7.126-.691 2.054-2.553 3.427-4.807 3.61 0 0 3.032-9.152 3.978-12.142.571-1.866-.521-4.412-3.4-4.412-2.013-.024-3.272-.011-5.28 0-1.164.015-2.185.725-2.544 1.805l-10.398 32.05Zm14.035-9.583h7.924l-4.476 13.61-3.632-.024 3.37-10.274h-4.29l1.104-3.312Z"/><path d="M613.476 722.922h3.602l-10.824 33.454c-.725 2.183-2.793 3.672-5.23 3.705-2.019.01-3.115.008-5.136 0-4.375-.02-6.058-1.74-7.077-4.572-.489-1.36-.53-3.278-.128-4.55 1.042-3.197 1.289-3.937 2.344-7.127.691-2.053 2.553-3.427 4.807-3.609 0 0-3.032 9.152-3.978 12.141-.571 1.866.522 4.413 3.4 4.413 2.013.023 3.272.01 5.28 0 1.163-.015 2.185-.726 2.544-1.806l10.396-32.049Zm96.383-86.88h-7.925l4.477-13.61 3.631.024-3.37 10.273h4.291l-1.104 3.313Z"/><path d="M692.214 653.375h-3.602l10.826-33.455c.725-2.182 2.793-3.672 5.229-3.704 2.019-.011 3.116-.009 5.137 0 4.375.019 6.058 1.739 7.077 4.571.489 1.361.53 3.279.128 4.551-1.043 3.196-1.289 3.936-2.344 7.126-.691 2.054-2.553 3.427-4.808 3.61 0 0 3.033-9.152 3.979-12.142.571-1.866-.522-4.412-3.4-4.412-2.013-.024-3.272-.011-5.28 0-1.164.015-2.185.725-2.544 1.806l-10.398 32.049Zm14.034-9.583h7.925l-4.477 13.61-3.631-.024 3.37-10.273h-4.291l1.104-3.313Z"/><path d="M723.891 626.459h3.602l-10.823 33.454c-.726 2.183-2.794 3.672-5.23 3.705-2.019.01-3.115.008-5.137 0-4.374-.02-6.057-1.739-7.076-4.572-.489-1.36-.531-3.278-.128-4.55 1.042-3.196 1.289-3.937 2.344-7.127.69-2.053 2.552-3.426 4.806-3.609 0 0-3.032 9.152-3.977 12.141-.571 1.867.521 4.413 3.399 4.413 2.014.023 3.272.011 5.281 0 1.163-.015 2.184-.726 2.544-1.806l10.395-32.049Zm94.669-86.362h-7.924l4.476-13.609 3.632.023-3.371 10.274h4.291l-1.104 3.312Z"/><path d="M800.916 557.431h-3.602l10.825-33.455c.726-2.183 2.794-3.672 5.23-3.705 2.019-.01 3.115-.008 5.137 0 4.375.02 6.058 1.74 7.076 4.572.49 1.36.531 3.278.129 4.55-1.043 3.197-1.289 3.937-2.345 7.127-.69 2.053-2.553 3.427-4.807 3.61 0 0 3.033-9.153 3.978-12.142.572-1.866-.521-4.413-3.399-4.413-2.014-.023-3.272-.01-5.281 0-1.163.015-2.184.726-2.544 1.806l-10.397 32.05Zm14.034-9.583h7.925l-4.477 13.609-3.631-.023 3.37-10.274h-4.291l1.104-3.312Z"/><path d="M832.593 530.514h3.602l-10.823 33.455c-.726 2.183-2.794 3.672-5.23 3.704-2.019.011-3.115.009-5.137 0-4.374-.019-6.057-1.739-7.076-4.571-.489-1.361-.531-3.278-.128-4.55 1.042-3.197 1.289-3.937 2.344-7.127.69-2.054 2.553-3.427 4.806-3.61 0 0-3.032 9.152-3.977 12.142-.571 1.866.521 4.412 3.4 4.412 2.013.024 3.271.011 5.28 0 1.163-.015 2.184-.725 2.544-1.805l10.395-32.05Zm108.684-95.129h3.6l-10.796 33.455c-.723 2.182-2.789 3.672-5.224 3.704-2.018.011-3.113.009-5.134 0-4.372-.019-6.055-1.739-7.075-4.572-.489-1.36-.532-3.278-.131-4.55 1.04-3.196 1.286-3.937 2.338-7.127.689-2.053 2.549-3.426 4.802-3.609 0 0-3.025 9.152-3.968 12.142-.569 1.866.524 4.412 3.401 4.412 2.012.024 3.27.011 5.277 0 1.162-.015 2.183-.725 2.541-1.806l10.369-32.049Zm-418.254 45.291h-3.6l10.799-33.455c.723-2.183 2.789-3.672 5.224-3.705 2.018-.01 3.114-.008 5.134 0 4.372.02 6.055 1.739 7.075 4.572.49 1.36.532 3.278.131 4.55-1.04 3.197-1.286 3.937-2.339 7.127-.689 2.053-2.549 3.427-4.802 3.609 0 0 3.026-9.152 3.969-12.141.57-1.866-.524-4.413-3.401-4.413-2.012-.023-3.27-.011-5.277 0-1.162.015-2.183.726-2.541 1.806l-10.372 32.05Zm31.624-26.917h3.6l-10.797 33.455c-.723 2.183-2.789 3.672-5.224 3.704-2.018.011-3.113.009-5.134 0-4.372-.019-6.055-1.739-7.075-4.571-.49-1.361-.532-3.279-.131-4.551 1.04-3.196 1.286-3.936 2.338-7.126.689-2.054 2.55-3.427 4.802-3.61 0 0-3.025 9.152-3.968 12.142-.569 1.866.524 4.412 3.401 4.412 2.012.024 3.27.011 5.277 0 1.162-.015 2.183-.725 2.541-1.806l10.37-32.049Zm15.086 28.105h-7.925l4.477-13.609 3.632.023-3.371 10.274h4.291l-1.104 3.312Z"/><path d="M552.089 499.198h-3.603l10.826-33.455c.725-2.183 2.794-3.672 5.23-3.704 2.019-.011 3.115-.009 5.137 0 4.375.019 6.058 1.739 7.076 4.571.489 1.361.531 3.278.128 4.55-1.042 3.197-1.289 3.937-2.344 7.127-.691 2.053-2.553 3.427-4.807 3.61 0 0 3.032-9.152 3.978-12.142.571-1.866-.521-4.413-3.4-4.413-2.013-.023-3.271-.01-5.28 0-1.163.016-2.185.726-2.544 1.806l-10.397 32.05Zm14.034-9.583h7.924l-4.476 13.609-3.632-.023 3.371-10.274h-4.291l1.104-3.312Z"/><path d="M583.766 472.281h3.602l-10.824 33.455c-.725 2.183-2.793 3.672-5.229 3.704-2.019.011-3.116.009-5.137 0-4.375-.019-6.058-1.739-7.076-4.571-.49-1.361-.531-3.278-.129-4.55 1.042-3.197 1.289-3.937 2.344-7.127.691-2.053 2.553-3.427 4.807-3.61 0 0-3.032 9.152-3.978 12.142-.571 1.866.522 4.413 3.4 4.413 2.013.023 3.272.01 5.28 0 1.164-.016 2.185-.726 2.544-1.806l10.396-32.05Zm14.663 31.143h-7.925l4.477-13.61 3.632.024-3.371 10.273h4.291l-1.104 3.313Z"/><path d="M580.785 520.757h-3.602l10.825-33.455c.725-2.182 2.794-3.672 5.23-3.704 2.019-.011 3.115-.009 5.137 0 4.375.019 6.058 1.739 7.076 4.572.489 1.36.531 3.278.128 4.55-1.042 3.196-1.289 3.937-2.344 7.127-.691 2.053-2.553 3.426-4.807 3.609 0 0 3.032-9.152 3.978-12.142.571-1.866-.521-4.412-3.4-4.412-2.013-.024-3.271-.011-5.28 0-1.163.015-2.185.725-2.544 1.806l-10.397 32.049Zm14.034-9.583h7.924l-4.476 13.61-3.632-.024 3.371-10.273h-4.291l1.104-3.313Z"/><path d="M612.462 493.841h3.602l-10.824 33.455c-.725 2.182-2.793 3.672-5.229 3.704-2.019.011-3.115.009-5.137 0-4.375-.019-6.058-1.739-7.076-4.572-.49-1.36-.531-3.278-.129-4.55 1.042-3.196 1.289-3.937 2.344-7.126.691-2.054 2.553-3.427 4.807-3.61 0 0-3.032 9.152-3.978 12.142-.571 1.866.522 4.412 3.4 4.412 2.013.024 3.272.011 5.28 0 1.164-.015 2.185-.725 2.544-1.806l10.396-32.049Zm14.737 30.402h-7.925l4.477-13.61 3.632.024-3.371 10.273h4.291l-1.104 3.313Z"/><path d="M609.554 541.576h-3.602l10.826-33.455c.725-2.182 2.793-3.672 5.23-3.704 2.019-.011 3.115-.009 5.136 0 4.375.019 6.058 1.739 7.077 4.572.489 1.36.53 3.278.128 4.55-1.042 3.196-1.289 3.937-2.344 7.126-.691 2.054-2.553 3.427-4.807 3.61 0 0 3.032-9.152 3.978-12.142.571-1.866-.522-4.412-3.4-4.412-2.013-.024-3.272-.011-5.28 0-1.164.015-2.185.725-2.544 1.806l-10.398 32.049Zm14.034-9.583h7.925l-4.476 13.61-3.632-.024 3.37-10.273h-4.29l1.103-3.313Z"/><path d="M641.232 514.66h3.602l-10.824 33.455c-.725 2.182-2.794 3.672-5.23 3.704-2.019.011-3.115.008-5.137 0-4.374-.019-6.057-1.739-7.076-4.572-.489-1.36-.53-3.278-.128-4.55 1.042-3.196 1.289-3.937 2.344-7.127.69-2.053 2.553-3.426 4.807-3.609 0 0-3.033 9.152-3.978 12.142-.571 1.866.521 4.412 3.4 4.412 2.013.024 3.272.011 5.28 0 1.163-.015 2.185-.725 2.544-1.806l10.396-32.049Zm-52.708-47.543h-3.6l10.799-33.454c.723-2.183 2.79-3.672 5.224-3.705 2.018-.011 3.114-.008 5.134 0 4.372.02 6.056 1.739 7.075 4.572.49 1.36.532 3.278.131 4.55-1.04 3.196-1.286 3.937-2.338 7.127-.69 2.053-2.55 3.426-4.802 3.609 0 0 3.025-9.152 3.968-12.141.57-1.867-.524-4.413-3.4-4.413-2.013-.024-3.27-.011-5.278 0-1.162.015-2.183.726-2.541 1.806l-10.372 32.049Zm14.017-9.583h7.924l-4.476 13.61-3.631-.024 3.37-10.273h-4.291l1.104-3.313Z"/><path d="M620.184 440.201h3.602l-10.824 33.455c-.725 2.182-2.793 3.672-5.229 3.704-2.019.011-3.115.009-5.137 0-4.374-.019-6.057-1.739-7.076-4.572-.489-1.36-.531-3.278-.129-4.55 1.043-3.196 1.289-3.936 2.344-7.126.691-2.054 2.553-3.427 4.807-3.61 0 0-3.032 9.152-3.977 12.142-.571 1.866.521 4.412 3.399 4.412 2.014.024 3.272.011 5.281 0 1.163-.015 2.184-.725 2.543-1.806l10.396-32.049Zm14.663 31.069h-7.925l4.477-13.61 3.632.024-3.371 10.273h4.291l-1.104 3.313Z"/><path d="M617.203 488.603h-3.602l10.825-33.455c.725-2.182 2.794-3.672 5.23-3.704 2.019-.011 3.115-.009 5.137 0 4.375.019 6.058 1.739 7.076 4.572.49 1.36.531 3.278.129 4.55-1.043 3.196-1.29 3.936-2.345 7.126-.691 2.054-2.553 3.427-4.807 3.61 0 0 3.033-9.152 3.978-12.142.572-1.866-.521-4.412-3.399-4.412-2.014-.024-3.272-.011-5.281 0-1.163.015-2.184.725-2.544 1.806l-10.397 32.049Zm14.034-9.583h7.924l-4.476 13.61-3.632-.024 3.371-10.273h-4.291l1.104-3.313Z"/><path d="M648.88 461.687h3.602l-10.824 33.454c-.725 2.183-2.793 3.672-5.229 3.705-2.019.011-3.115.008-5.137 0-4.375-.02-6.058-1.739-7.076-4.572-.49-1.36-.531-3.278-.129-4.55 1.043-3.196 1.289-3.937 2.344-7.127.691-2.053 2.553-3.426 4.807-3.609 0 0-3.032 9.152-3.977 12.141-.572 1.867.521 4.413 3.399 4.413 2.013.024 3.272.011 5.28 0 1.164-.015 2.185-.726 2.544-1.806l10.396-32.049Zm-94.463 125.308h-7.924l4.477-13.609 3.631.023-3.37 10.274h4.29l-1.104 3.312Z"/><path d="M536.773 604.329h-3.602l10.825-33.455c.726-2.183 2.794-3.672 5.23-3.704 2.019-.011 3.115-.009 5.137 0 4.375.019 6.058 1.739 7.077 4.571.489 1.361.53 3.278.128 4.551-1.043 3.196-1.289 3.936-2.345 7.126-.69 2.054-2.553 3.427-4.807 3.61 0 0 3.033-9.152 3.978-12.142.572-1.866-.521-4.412-3.399-4.412-2.013-.024-3.272-.011-5.281 0-1.163.015-2.184.725-2.543 1.805l-10.398 32.05Zm14.034-9.583h7.925l-4.477 13.609-3.631-.023 3.37-10.274h-4.291l1.104-3.312Z"/><path d="M568.45 577.412h3.602l-10.823 33.455c-.726 2.183-2.794 3.672-5.23 3.705-2.019.01-3.115.008-5.137 0-4.374-.02-6.057-1.74-7.076-4.572-.489-1.36-.531-3.278-.128-4.55 1.042-3.197 1.288-3.937 2.344-7.127.69-2.053 2.552-3.427 4.806-3.61 0 0-3.032 9.153-3.977 12.142-.571 1.866.521 4.413 3.399 4.413 2.014.023 3.272.01 5.281 0 1.163-.015 2.184-.726 2.544-1.806l10.395-32.05Zm95.167-85.25h-7.925l4.477-13.609 3.632.023-3.371 10.274h4.291l-1.104 3.312Z"/><path d="M645.973 509.496h-3.603l10.826-33.455c.725-2.183 2.794-3.672 5.23-3.704 2.019-.011 3.115-.009 5.137 0 4.374.019 6.057 1.739 7.076 4.571.489 1.361.53 3.278.128 4.55-1.042 3.197-1.289 3.937-2.344 7.127-.691 2.054-2.553 3.427-4.807 3.61 0 0 3.032-9.152 3.978-12.142.571-1.866-.521-4.412-3.4-4.412-2.013-.024-3.272-.011-5.28 0-1.163.015-2.185.725-2.544 1.805l-10.397 32.05Zm14.033-9.583h7.925l-4.476 13.609-3.632-.023 3.37-10.274h-4.29l1.103-3.312Z"/><path d="M677.65 482.579h3.602l-10.824 33.455c-.725 2.183-2.793 3.672-5.23 3.705-2.019.01-3.115.008-5.136 0-4.375-.02-6.058-1.74-7.077-4.572-.489-1.36-.53-3.278-.128-4.55 1.042-3.197 1.289-3.937 2.344-7.127.691-2.053 2.553-3.427 4.807-3.61 0 0-3.032 9.153-3.978 12.142-.571 1.866.522 4.413 3.4 4.413 2.013.023 3.272.01 5.28 0 1.163-.015 2.185-.726 2.544-1.806l10.396-32.05Zm-130.025 21.19h3.599l-10.796 33.454c-.723 2.183-2.789 3.672-5.224 3.705-2.017.011-3.113.008-5.133 0-4.372-.02-6.055-1.739-7.075-4.572-.49-1.36-.532-3.278-.131-4.55 1.039-3.196 1.285-3.937 2.338-7.127.689-2.053 2.549-3.426 4.801-3.609 0 0-3.024 9.152-3.967 12.141-.57 1.867.524 4.413 3.4 4.413 2.012.024 3.27.011 5.277 0 1.163-.015 2.183-.726 2.541-1.806l10.37-32.049Zm14.681 31.068h-7.925l4.477-13.609 3.631.023-3.37 10.274h4.291l-1.104 3.312Z"/><path d="M544.661 552.171h-3.602l10.826-33.455c.725-2.183 2.793-3.672 5.229-3.705 2.02-.01 3.116-.008 5.137 0 4.375.02 6.058 1.74 7.077 4.572.489 1.36.53 3.278.128 4.55-1.042 3.197-1.289 3.937-2.344 7.127-.691 2.053-2.553 3.427-4.808 3.61 0 0 3.033-9.153 3.979-12.142.571-1.866-.522-4.413-3.4-4.413-2.013-.023-3.272-.01-5.28 0-1.164.015-2.185.726-2.544 1.806l-10.398 32.05Zm14.034-9.583h7.925l-4.477 13.609-3.631-.023 3.37-10.274h-4.291l1.104-3.312Z"/><path d="M576.339 525.254h3.602l-10.824 33.455c-.725 2.183-2.794 3.672-5.23 3.704-2.019.011-3.115.009-5.137 0-4.374-.019-6.057-1.739-7.076-4.571-.489-1.361-.53-3.278-.128-4.55 1.042-3.197 1.289-3.937 2.344-7.127.69-2.054 2.553-3.427 4.807-3.61 0 0-3.033 9.152-3.978 12.142-.571 1.866.521 4.412 3.4 4.412 2.013.024 3.271.011 5.28 0 1.163-.015 2.184-.725 2.544-1.805l10.396-32.05Zm14.736 30.476h-7.925l4.477-13.609 3.632.023-3.371 10.274h4.291l-1.104 3.312Z"/><path d="M573.431 573.064h-3.602l10.825-33.455c.726-2.183 2.794-3.672 5.23-3.704 2.019-.011 3.115-.009 5.137 0 4.375.019 6.058 1.739 7.076 4.571.49 1.361.531 3.278.129 4.55-1.043 3.197-1.29 3.937-2.345 7.127-.691 2.053-2.553 3.427-4.807 3.61 0 0 3.033-9.152 3.978-12.142.572-1.866-.521-4.413-3.399-4.413-2.014-.023-3.272-.01-5.281 0-1.163.015-2.184.726-2.544 1.806l-10.397 32.05Zm14.034-9.583h7.924l-4.476 13.609-3.632-.023 3.371-10.274h-4.291l1.104-3.312Z"/><path d="M605.108 546.147h3.602l-10.824 33.455c-.725 2.183-2.793 3.672-5.229 3.704-2.019.011-3.115.009-5.137 0-4.375-.019-6.058-1.739-7.076-4.571-.49-1.361-.531-3.278-.129-4.55 1.043-3.197 1.289-3.937 2.344-7.127.691-2.053 2.553-3.427 4.807-3.61 0 0-3.032 9.152-3.977 12.142-.572 1.866.521 4.413 3.399 4.413 2.014.023 3.272.01 5.281 0 1.163-.016 2.184-.726 2.543-1.806l10.396-32.05Zm78.756-69.546h-3.6l10.799-33.455c.723-2.183 2.79-3.672 5.224-3.705 2.018-.01 3.114-.008 5.134 0 4.372.02 6.056 1.74 7.075 4.572.49 1.36.532 3.278.131 4.55-1.04 3.197-1.286 3.937-2.338 7.127-.69 2.053-2.55 3.427-4.803 3.61 0 0 3.026-9.153 3.969-12.142.57-1.866-.524-4.413-3.4-4.413-2.013-.023-3.27-.01-5.278 0-1.162.015-2.183.726-2.541 1.806l-10.372 32.05Zm14.017-9.583h7.924l-4.476 13.609-3.631-.023 3.37-10.274h-4.291l1.104-3.312Z"/><path d="M715.524 449.684h3.602l-10.824 33.455c-.725 2.183-2.793 3.672-5.229 3.704-2.019.011-3.115.009-5.137 0-4.375-.019-6.058-1.739-7.076-4.571-.49-1.361-.531-3.278-.129-4.551 1.043-3.196 1.289-3.936 2.344-7.126.691-2.054 2.553-3.427 4.807-3.61 0 0-3.032 9.152-3.977 12.142-.572 1.866.521 4.412 3.399 4.412 2.014.024 3.272.011 5.281 0 1.163-.015 2.184-.725 2.543-1.806l10.396-32.049ZM407.55 400.065h-3.6l10.798-33.455c.724-2.183 2.79-3.672 5.225-3.704 2.017-.011 3.113-.009 5.133 0 4.373.019 6.056 1.739 7.075 4.571.49 1.361.533 3.279.131 4.551-1.04 3.196-1.286 3.936-2.338 7.126-.689 2.054-2.55 3.427-4.802 3.61 0 0 3.025-9.152 3.968-12.142.57-1.866-.524-4.412-3.4-4.412-2.012-.024-3.27-.011-5.278 0-1.162.015-2.182.725-2.541 1.806l-10.371 32.049Zm231.881-203.619h7.924l-4.476 13.609-3.631-.023 3.369-10.274h-4.29l1.104-3.312Z"/><path d="M657.073 179.112h3.602l-10.822 33.455c-.725 2.183-2.794 3.672-5.23 3.704-2.018.011-3.115.009-5.136 0-4.375-.019-6.058-1.739-7.076-4.571-.49-1.361-.531-3.279-.129-4.551 1.042-3.196 1.289-3.936 2.344-7.126.69-2.054 2.552-3.427 4.806-3.61 0 0-3.031 9.152-3.977 12.142-.571 1.866.522 4.412 3.4 4.412 2.013.024 3.272.011 5.28 0 1.163-.015 2.184-.725 2.544-1.806l10.394-32.049Zm-94.038 127.086h-7.925l4.477-13.609 3.632.024-3.371 10.273h4.291l-1.104 3.312Z"/><path d="M545.391 323.532h-3.602l10.825-33.455c.725-2.182 2.794-3.672 5.23-3.704 2.019-.011 3.115-.009 5.137 0 4.375.019 6.058 1.739 7.076 4.571.49 1.361.531 3.279.129 4.551-1.043 3.196-1.29 3.936-2.345 7.126-.691 2.054-2.553 3.427-4.807 3.61 0 0 3.033-9.152 3.978-12.142.572-1.866-.521-4.412-3.399-4.412-2.014-.024-3.272-.011-5.281 0-1.163.015-2.184.725-2.544 1.806l-10.397 32.049Zm14.034-9.583h7.924l-4.476 13.61-3.632-.024 3.371-10.273h-4.291l1.104-3.313Z"/><path d="M577.068 296.616h3.602l-10.824 33.454c-.725 2.183-2.793 3.672-5.229 3.705-2.019.01-3.115.008-5.137 0-4.375-.02-6.058-1.739-7.076-4.572-.49-1.36-.531-3.278-.129-4.55 1.043-3.196 1.289-3.937 2.344-7.127.691-2.053 2.553-3.426 4.807-3.609 0 0-3.032 9.152-3.977 12.141-.572 1.866.521 4.413 3.399 4.413 2.013.023 3.272.011 5.28 0 1.164-.015 2.185-.726 2.544-1.806l10.396-32.049Zm-94.131 126.197h-7.925l4.477-13.609 3.632.023-3.371 10.274h4.291l-1.104 3.312Z"/><path d="M465.293 440.147h-3.603l10.826-33.455c.725-2.183 2.794-3.672 5.23-3.704 2.019-.011 3.115-.009 5.137 0 4.374.019 6.058 1.739 7.076 4.571.489 1.361.531 3.278.128 4.55-1.042 3.197-1.289 3.937-2.344 7.127-.691 2.053-2.553 3.427-4.807 3.61 0 0 3.032-9.152 3.978-12.142.571-1.866-.521-4.413-3.4-4.413-2.013-.023-3.271-.01-5.28 0-1.163.015-2.185.726-2.544 1.806l-10.397 32.05Zm14.034-9.583h7.924l-4.476 13.609-3.632-.023 3.37-10.274h-4.29l1.104-3.312Z"/><path d="M496.97 413.23h3.602l-10.824 33.455c-.725 2.183-2.793 3.672-5.229 3.704-2.019.011-3.116.009-5.137 0-4.375-.019-6.058-1.739-7.077-4.571-.489-1.361-.53-3.278-.128-4.55 1.042-3.197 1.289-3.937 2.344-7.127.691-2.053 2.553-3.427 4.807-3.61 0 0-3.032 9.152-3.978 12.142-.571 1.866.522 4.413 3.4 4.413 2.013.023 3.272.01 5.28 0 1.163-.016 2.185-.726 2.544-1.806l10.396-32.05Zm94.853-86.211h-7.925l4.477-13.61 3.632.024-3.371 10.273h4.291l-1.104 3.313Z"/><path d="M574.179 344.352h-3.602l10.825-33.455c.725-2.182 2.794-3.672 5.23-3.704 2.019-.011 3.115-.009 5.137 0 4.375.019 6.058 1.739 7.076 4.572.489 1.36.531 3.278.128 4.55-1.042 3.196-1.289 3.936-2.344 7.126-.691 2.054-2.553 3.427-4.807 3.61 0 0 3.033-9.152 3.978-12.142.571-1.866-.521-4.412-3.399-4.412-2.014-.024-3.272-.011-5.281 0-1.163.015-2.185.725-2.544 1.806l-10.397 32.049Zm14.034-9.583h7.924l-4.476 13.61-3.632-.024 3.371-10.273h-4.291l1.104-3.313Z"/><path d="M605.856 317.436h3.602l-10.824 33.454c-.725 2.183-2.793 3.672-5.229 3.705-2.019.011-3.115.008-5.137 0-4.375-.02-6.058-1.739-7.076-4.572-.49-1.36-.531-3.278-.129-4.55 1.042-3.196 1.289-3.937 2.344-7.127.691-2.053 2.553-3.426 4.807-3.609 0 0-3.032 9.152-3.977 12.141-.572 1.867.521 4.413 3.399 4.413 2.013.024 3.272.011 5.28 0 1.164-.015 2.185-.726 2.544-1.806l10.396-32.049Zm-94.131 126.196H503.8l4.477-13.61 3.632.024-3.371 10.273h4.291l-1.104 3.313Z"/><path d="M494.081 460.965h-3.602l10.825-33.454c.725-2.183 2.794-3.672 5.23-3.705 2.019-.01 3.115-.008 5.137 0 4.375.02 6.058 1.739 7.076 4.572.489 1.36.531 3.278.128 4.55-1.042 3.197-1.289 3.937-2.344 7.127-.691 2.053-2.553 3.426-4.807 3.609 0 0 3.033-9.152 3.978-12.141.571-1.866-.521-4.413-3.4-4.413-2.013-.023-3.271-.01-5.28 0-1.163.015-2.185.726-2.544 1.806l-10.397 32.049Zm14.034-9.582h7.924l-4.476 13.609-3.632-.023 3.37-10.274h-4.29l1.104-3.312Z"/><path d="M525.758 434.049h3.602l-10.824 33.455c-.725 2.183-2.793 3.672-5.229 3.704-2.019.011-3.116.009-5.137 0-4.375-.019-6.058-1.739-7.077-4.571-.489-1.361-.53-3.279-.128-4.551 1.042-3.196 1.289-3.936 2.344-7.126.691-2.054 2.553-3.427 4.807-3.61 0 0-3.032 9.152-3.978 12.142-.571 1.866.522 4.412 3.4 4.412 2.013.024 3.272.011 5.28 0 1.163-.015 2.185-.725 2.544-1.806l10.396-32.049Zm96.364-86.88h-7.924l4.476-13.609 3.632.023-3.371 10.274h4.291l-1.104 3.312Z"/><path d="M604.478 364.503h-3.602l10.826-33.455c.725-2.183 2.793-3.672 5.229-3.705 2.019-.01 3.116-.008 5.137 0 4.375.02 6.058 1.74 7.077 4.572.489 1.36.53 3.278.128 4.55-1.043 3.197-1.289 3.937-2.344 7.127-.691 2.053-2.554 3.427-4.808 3.61 0 0 3.033-9.153 3.978-12.142.572-1.866-.521-4.413-3.399-4.413-2.013-.023-3.272-.01-5.281 0-1.163.015-2.184.726-2.543 1.806l-10.398 32.05Zm14.034-9.583h7.925l-4.477 13.609-3.631-.023 3.37-10.274h-4.291l1.104-3.312Z"/><path d="M636.155 337.586h3.602l-10.824 33.455c-.725 2.183-2.793 3.672-5.229 3.704-2.019.011-3.115.009-5.137 0-4.374-.019-6.057-1.739-7.076-4.571-.489-1.361-.531-3.278-.129-4.55 1.043-3.197 1.289-3.937 2.344-7.127.691-2.053 2.553-3.427 4.807-3.61 0 0-3.032 9.152-3.977 12.142-.571 1.866.521 4.412 3.399 4.412 2.014.024 3.272.011 5.281 0 1.163-.015 2.184-.725 2.543-1.805l10.396-32.05Zm94.669-86.36h-7.925l4.477-13.61 3.632.024-3.371 10.273h4.291l-1.104 3.313Z"/><path d="M713.18 268.559h-3.602l10.825-33.455c.726-2.182 2.794-3.672 5.23-3.704 2.019-.011 3.115-.009 5.137 0 4.375.019 6.058 1.739 7.076 4.572.49 1.36.531 3.278.129 4.55-1.043 3.196-1.289 3.936-2.345 7.126-.69 2.054-2.553 3.427-4.807 3.61 0 0 3.033-9.152 3.978-12.142.572-1.866-.521-4.412-3.399-4.412-2.014-.024-3.272-.011-5.281 0-1.163.015-2.184.725-2.544 1.806l-10.397 32.049Zm14.034-9.584h7.925l-4.477 13.61-3.631-.024 3.37-10.273h-4.291l1.104-3.313Z"/><path d="M744.857 241.642h3.602l-10.824 33.455c-.725 2.182-2.793 3.672-5.229 3.704-2.019.011-3.115.009-5.137 0-4.374-.019-6.057-1.739-7.076-4.572-.489-1.36-.531-3.278-.129-4.55 1.043-3.196 1.289-3.937 2.344-7.126.691-2.054 2.553-3.427 4.807-3.61 0 0-3.032 9.152-3.977 12.142-.571 1.866.521 4.412 3.399 4.412 2.014.024 3.272.011 5.281 0 1.163-.015 2.184-.725 2.543-1.806l10.396-32.049Zm-174.081 10.917h-7.925l4.477-13.61 3.632.024-3.371 10.274h4.291l-1.104 3.312Z"/><path d="M553.131 269.892h-3.602l10.826-33.454c.725-2.183 2.793-3.672 5.23-3.705 2.019-.01 3.115-.008 5.137 0 4.374.02 6.057 1.74 7.076 4.572.489 1.36.53 3.278.128 4.55-1.042 3.197-1.289 3.937-2.344 7.127-.691 2.053-2.553 3.426-4.807 3.609 0 0 3.032-9.152 3.978-12.141.571-1.866-.521-4.413-3.4-4.413-2.013-.023-3.272-.01-5.28 0-1.163.015-2.185.726-2.544 1.806l-10.398 32.049Zm14.035-9.583h7.924l-4.476 13.609-3.632-.023 3.37-10.274h-4.29l1.104-3.312Z"/><path d="M584.809 242.975h3.602l-10.824 33.455c-.725 2.183-2.793 3.672-5.23 3.705-2.019.01-3.115.008-5.136 0-4.375-.02-6.058-1.74-7.077-4.572-.489-1.36-.53-3.278-.128-4.55 1.042-3.197 1.289-3.937 2.344-7.127.691-2.053 2.553-3.427 4.807-3.61 0 0-3.032 9.153-3.978 12.142-.571 1.866.522 4.413 3.4 4.413 2.013.023 3.272.01 5.28 0 1.163-.015 2.185-.726 2.544-1.806l10.396-32.05Zm-94.131 126.198h-7.925l4.477-13.609 3.632.023-3.371 10.274h4.291l-1.104 3.312Z"/><path d="M473.033 386.507h-3.602l10.826-33.455c.725-2.183 2.793-3.672 5.229-3.704 2.02-.011 3.116-.009 5.137 0 4.375.019 6.058 1.739 7.077 4.571.489 1.361.53 3.278.128 4.55-1.042 3.197-1.289 3.937-2.344 7.127-.691 2.054-2.553 3.427-4.807 3.61 0 0 3.032-9.152 3.978-12.142.571-1.866-.522-4.412-3.4-4.412-2.013-.024-3.272-.011-5.28 0-1.164.015-2.185.725-2.544 1.805l-10.398 32.05Zm14.034-9.583h7.925l-4.476 13.609-3.632-.023 3.37-10.274h-4.29l1.103-3.312Z"/><path d="M504.711 359.59h3.602l-10.824 33.455c-.725 2.183-2.794 3.672-5.23 3.705-2.019.01-3.115.008-5.137 0-4.374-.02-6.057-1.74-7.076-4.572-.489-1.36-.53-3.278-.128-4.55 1.042-3.197 1.289-3.937 2.344-7.127.691-2.053 2.553-3.427 4.807-3.61 0 0-3.032 9.153-3.978 12.142-.571 1.866.521 4.413 3.4 4.413 2.013.023 3.272.01 5.28 0 1.163-.015 2.185-.726 2.544-1.806l10.396-32.05Zm-80.559 116.393h3.6l-10.796 33.455c-.723 2.183-2.789 3.672-5.224 3.704-2.018.011-3.113.009-5.133 0-4.372-.019-6.055-1.739-7.075-4.571-.49-1.361-.533-3.278-.132-4.551 1.04-3.196 1.286-3.936 2.338-7.126.689-2.054 2.55-3.427 4.802-3.61 0 0-3.024 9.152-3.967 12.142-.57 1.866.524 4.412 3.4 4.412 2.012.024 3.27.011 5.277 0 1.163-.015 2.183-.725 2.541-1.805l10.369-32.05Zm175.301-201.865h-7.924l4.476-13.609 3.632.023-3.371 10.274h4.291l-1.104 3.312Z"/><path d="M581.809 291.452h-3.602l10.825-33.455c.726-2.183 2.794-3.672 5.23-3.705 2.019-.01 3.115-.008 5.137 0 4.375.02 6.058 1.74 7.076 4.572.49 1.36.531 3.278.129 4.55-1.043 3.197-1.289 3.937-2.345 7.127-.69 2.053-2.553 3.427-4.807 3.61 0 0 3.033-9.153 3.978-12.142.572-1.866-.521-4.413-3.399-4.413-2.014-.023-3.272-.01-5.281 0-1.163.015-2.184.726-2.544 1.806l-10.397 32.05Zm14.034-9.583h7.925l-4.477 13.609-3.631-.023 3.37-10.274h-4.291l1.104-3.312Z"/><path d="M613.486 264.535h3.602l-10.823 33.455c-.726 2.183-2.794 3.672-5.23 3.704-2.019.011-3.115.009-5.137 0-4.374-.019-6.057-1.739-7.076-4.571-.489-1.361-.531-3.278-.128-4.55 1.042-3.197 1.288-3.937 2.344-7.127.69-2.054 2.552-3.427 4.806-3.61 0 0-3.032 9.152-3.977 12.142-.571 1.866.521 4.412 3.399 4.412 2.014.024 3.272.011 5.281 0 1.163-.015 2.184-.725 2.544-1.805l10.395-32.05Zm-94.131 126.198h-7.924l4.476-13.609 3.632.023-3.371 10.274h4.291l-1.104 3.312Z"/><path d="M501.711 408.067h-3.602l10.825-33.455c.726-2.183 2.794-3.672 5.23-3.705 2.019-.01 3.115-.008 5.137 0 4.375.02 6.058 1.74 7.076 4.572.49 1.36.531 3.278.129 4.55-1.043 3.197-1.289 3.937-2.345 7.127-.69 2.053-2.553 3.427-4.807 3.61 0 0 3.033-9.153 3.978-12.142.572-1.866-.521-4.413-3.399-4.413-2.014-.023-3.272-.01-5.281 0-1.163.015-2.184.726-2.544 1.806l-10.397 32.05Zm14.034-9.583h7.925l-4.477 13.609-3.631-.023 3.37-10.274h-4.291l1.104-3.312Z"/><path d="M533.388 381.15h3.602l-10.824 33.455c-.725 2.183-2.793 3.672-5.229 3.704-2.019.011-3.115.009-5.137 0-4.375-.019-6.058-1.739-7.076-4.571-.49-1.361-.531-3.278-.129-4.55 1.043-3.197 1.289-3.937 2.344-7.127.691-2.054 2.553-3.427 4.807-3.61 0 0-3.032 9.152-3.977 12.142-.572 1.866.521 4.412 3.399 4.412 2.014.024 3.272.011 5.281 0 1.163-.015 2.184-.725 2.543-1.805l10.396-32.05Zm-94.463 125.309h-7.924l4.477-13.61 3.631.024-3.37 10.273h4.29l-1.104 3.313Z"/><path d="M421.281 523.792h-3.602l10.826-33.454c.725-2.183 2.793-3.672 5.229-3.705 2.019-.01 3.116-.008 5.137 0 4.375.02 6.058 1.739 7.077 4.572.489 1.36.53 3.278.128 4.55-1.043 3.196-1.289 3.937-2.344 7.127-.691 2.053-2.554 3.426-4.808 3.609 0 0 3.033-9.152 3.978-12.141.572-1.867-.521-4.413-3.399-4.413-2.013-.023-3.272-.011-5.281 0-1.163.015-2.184.726-2.543 1.806l-10.398 32.049Zm14.034-9.583h7.925l-4.477 13.61-3.631-.024 3.37-10.273h-4.291l1.104-3.313Z"/><path d="M452.958 496.876h3.602l-10.823 33.455c-.726 2.182-2.794 3.672-5.23 3.704-2.019.011-3.115.009-5.137 0-4.374-.019-6.057-1.739-7.076-4.572-.489-1.36-.531-3.278-.128-4.55 1.042-3.196 1.289-3.936 2.344-7.126.69-2.054 2.553-3.427 4.806-3.61 0 0-3.032 9.152-3.977 12.142-.571 1.866.521 4.412 3.4 4.412 2.013.024 3.271.011 5.28 0 1.163-.015 2.184-.725 2.544-1.806l10.395-32.049Zm175.283-201.939h-7.924l4.476-13.61 3.632.024-3.371 10.273h4.291l-1.104 3.313Z"/><path d="M610.597 312.27h-3.602l10.825-33.454c.726-2.183 2.794-3.672 5.23-3.705 2.019-.01 3.115-.008 5.137 0 4.375.02 6.058 1.739 7.077 4.572.489 1.36.53 3.278.128 4.55-1.043 3.196-1.289 3.937-2.345 7.127-.69 2.053-2.553 3.426-4.807 3.609 0 0 3.033-9.152 3.978-12.141.572-1.867-.521-4.413-3.399-4.413-2.013-.023-3.272-.011-5.281 0-1.163.015-2.184.726-2.543 1.806l-10.398 32.049Zm14.034-9.583h7.925l-4.477 13.61-3.631-.024 3.37-10.273h-4.291l1.104-3.313Z"/><path d="M642.274 285.354h3.602l-10.823 33.455c-.726 2.182-2.794 3.672-5.23 3.704-2.019.011-3.115.009-5.137 0-4.374-.019-6.057-1.739-7.076-4.571-.489-1.361-.531-3.279-.129-4.551 1.043-3.196 1.289-3.936 2.345-7.126.69-2.054 2.552-3.427 4.806-3.61 0 0-3.032 9.152-3.977 12.142-.571 1.866.521 4.412 3.399 4.412 2.014.024 3.272.011 5.281 0 1.163-.015 2.184-.725 2.543-1.806l10.396-32.049Zm77.024-69.027h-3.6l10.799-33.455c.723-2.183 2.789-3.672 5.224-3.704 2.018-.011 3.113-.009 5.134 0 4.372.019 6.055 1.739 7.075 4.571.49 1.361.532 3.279.131 4.551-1.04 3.196-1.286 3.936-2.339 7.126-.689 2.054-2.549 3.427-4.802 3.61 0 0 3.025-9.152 3.968-12.142.57-1.866-.523-4.412-3.4-4.412-2.012-.024-3.27-.011-5.277 0-1.163.015-2.183.725-2.541 1.806l-10.372 32.049Zm14.016-9.583h7.925l-4.476 13.61-3.632-.024 3.37-10.274h-4.29l1.103-3.312Z"/><path d="M750.958 189.411h3.602l-10.824 33.454c-.725 2.183-2.794 3.672-5.23 3.705-2.019.01-3.115.008-5.137 0-4.374-.02-6.057-1.74-7.076-4.572-.489-1.36-.53-3.278-.128-4.55 1.042-3.197 1.289-3.937 2.344-7.127.69-2.053 2.553-3.427 4.807-3.609 0 0-3.033 9.152-3.978 12.141-.571 1.866.521 4.413 3.4 4.413 2.013.023 3.271.01 5.28 0 1.163-.015 2.184-.726 2.544-1.806l10.396-32.049ZM548.125 411.552H540.2l4.477-13.61 3.632.024-3.371 10.273h4.291l-1.104 3.313Z"/><path d="M530.481 428.885h-3.602l10.825-33.455c.725-2.182 2.794-3.672 5.23-3.704 2.019-.011 3.115-.009 5.137 0 4.375.019 6.058 1.739 7.076 4.572.489 1.36.531 3.278.128 4.55-1.042 3.196-1.289 3.937-2.344 7.127-.691 2.053-2.553 3.426-4.807 3.609 0 0 3.033-9.152 3.978-12.142.571-1.866-.521-4.412-3.399-4.412-2.014-.024-3.272-.011-5.281 0-1.163.015-2.185.725-2.544 1.806l-10.397 32.049Zm14.034-9.583h7.924l-4.476 13.61-3.632-.024 3.371-10.273h-4.291l1.104-3.313Z"/><path d="M562.158 401.969h3.602l-10.824 33.455c-.725 2.182-2.793 3.672-5.229 3.704-2.019.011-3.115.009-5.137 0-4.375-.019-6.058-1.739-7.076-4.572-.49-1.36-.531-3.278-.129-4.55 1.043-3.196 1.289-3.937 2.344-7.127.691-2.053 2.553-3.426 4.807-3.609 0 0-3.032 9.152-3.977 12.142-.572 1.866.521 4.412 3.399 4.412 2.013.024 3.272.011 5.28 0 1.164-.015 2.185-.725 2.544-1.806l10.396-32.049Zm96.383-86.88h-7.925l4.477-13.61 3.632.024-3.371 10.273h4.291l-1.104 3.313Z"/><path d="M640.896 332.422h-3.602l10.826-33.455c.725-2.182 2.793-3.672 5.23-3.704 2.019-.011 3.115-.008 5.137 0 4.374.02 6.057 1.739 7.076 4.572.489 1.36.53 3.278.128 4.55-1.042 3.196-1.289 3.937-2.344 7.127-.691 2.053-2.553 3.426-4.807 3.609 0 0 3.032-9.152 3.978-12.142.571-1.866-.521-4.412-3.4-4.412-2.013-.024-3.272-.011-5.28 0-1.163.015-2.185.725-2.544 1.806l-10.398 32.049Zm14.035-9.583h7.924l-4.476 13.61-3.632-.024 3.371-10.273h-4.291l1.104-3.313Z"/><path d="M672.574 305.506h3.602l-10.824 33.455c-.725 2.182-2.793 3.672-5.23 3.704-2.019.011-3.115.009-5.136 0-4.375-.019-6.058-1.739-7.077-4.572-.489-1.36-.53-3.278-.128-4.55 1.042-3.196 1.289-3.937 2.344-7.126.691-2.054 2.553-3.427 4.807-3.61 0 0-3.032 9.152-3.978 12.142-.571 1.866.522 4.412 3.4 4.412 2.013.024 3.272.011 5.28 0 1.163-.015 2.185-.725 2.544-1.806l10.396-32.049Zm94.668-86.361h-7.924l4.477-13.61 3.631.024-3.37 10.273h4.29l-1.104 3.313Z"/><path d="M749.598 236.478h-3.602l10.826-33.455c.725-2.182 2.793-3.672 5.229-3.704 2.02-.011 3.116-.009 5.137 0 4.375.019 6.058 1.739 7.077 4.572.489 1.36.53 3.278.128 4.55-1.042 3.196-1.289 3.936-2.344 7.126-.691 2.054-2.553 3.427-4.807 3.61 0 0 3.032-9.152 3.978-12.142.571-1.866-.522-4.412-3.4-4.412-2.013-.024-3.272-.011-5.28 0-1.164.015-2.185.725-2.544 1.806l-10.398 32.049Zm14.034-9.583h7.925l-4.477 13.61-3.631-.024 3.37-10.273h-4.291l1.104-3.313Z"/><path d="M781.275 209.562h3.603l-10.824 33.454c-.726 2.183-2.794 3.672-5.23 3.705-2.019.011-3.115.008-5.137 0-4.374-.02-6.057-1.739-7.076-4.572-.489-1.36-.531-3.278-.128-4.55 1.042-3.196 1.289-3.937 2.344-7.127.69-2.053 2.553-3.426 4.806-3.609 0 0-3.032 9.152-3.977 12.141-.571 1.867.521 4.413 3.4 4.413 2.013.024 3.271.011 5.28 0 1.163-.015 2.184-.726 2.544-1.806l10.395-32.049ZM498.234 316.126h-7.925l4.477-13.609 3.632.023-3.371 10.274h4.291l-1.104 3.312Z"/><path d="M480.59 333.46h-3.602l10.825-33.455c.725-2.183 2.794-3.672 5.23-3.705 2.019-.01 3.115-.008 5.137 0 4.375.02 6.058 1.74 7.076 4.572.49 1.361.531 3.278.129 4.55-1.043 3.197-1.29 3.937-2.345 7.127-.691 2.053-2.553 3.427-4.807 3.61 0 0 3.033-9.152 3.978-12.142.572-1.866-.521-4.413-3.399-4.413-2.014-.023-3.272-.01-5.281 0-1.163.015-2.184.726-2.544 1.806l-10.397 32.05Zm14.034-9.583h7.924l-4.476 13.609-3.632-.023 3.371-10.274h-4.291l1.104-3.312Z"/><path d="M512.267 306.543h3.602l-10.824 33.455c-.725 2.183-2.793 3.672-5.229 3.704-2.019.011-3.115.009-5.137 0-4.375-.019-6.058-1.739-7.076-4.571-.49-1.361-.531-3.278-.129-4.55 1.043-3.197 1.289-3.937 2.344-7.127.691-2.053 2.553-3.427 4.807-3.61 0 0-3.032 9.152-3.977 12.142-.572 1.866.521 4.413 3.399 4.413 2.014.023 3.272.01 5.281 0 1.163-.016 2.184-.726 2.543-1.806l10.396-32.05ZM400.509 450.075h-3.6l10.799-33.455c.723-2.183 2.79-3.672 5.224-3.705 2.018-.01 3.114-.008 5.134 0 4.372.02 6.055 1.74 7.075 4.572.49 1.361.532 3.278.131 4.55-1.04 3.197-1.286 3.937-2.339 7.127-.689 2.053-2.549 3.427-4.802 3.61 0 0 3.026-9.152 3.969-12.142.57-1.866-.524-4.413-3.401-4.413-2.012-.023-3.269-.01-5.277 0-1.162.015-2.183.726-2.541 1.806l-10.372 32.05Zm31.624-26.917h3.6l-10.797 33.455c-.723 2.183-2.789 3.672-5.224 3.704-2.018.011-3.113.009-5.134 0-4.372-.019-6.055-1.739-7.075-4.571-.49-1.361-.532-3.278-.131-4.55 1.04-3.197 1.286-3.937 2.338-7.127.689-2.054 2.55-3.427 4.802-3.61 0 0-3.025 9.152-3.967 12.142-.57 1.866.523 4.412 3.4 4.412 2.012.024 3.27.011 5.277 0 1.162-.015 2.183-.725 2.541-1.805l10.37-32.05Zm91.187-77.722h7.924l-4.476 13.61-3.632-.024 3.371-10.273h-4.291l1.104-3.313Z"/><path d="M540.963 328.103h3.602l-10.824 33.455c-.725 2.183-2.793 3.672-5.229 3.704-2.019.011-3.115.009-5.137 0-4.375-.019-6.058-1.739-7.076-4.571-.49-1.361-.531-3.279-.129-4.551 1.043-3.196 1.289-3.936 2.344-7.126.691-2.054 2.553-3.427 4.807-3.61 0 0-3.032 9.152-3.977 12.142-.572 1.866.521 4.412 3.399 4.412 2.013.024 3.272.011 5.28 0 1.164-.015 2.185-.725 2.544-1.806l10.396-32.049Zm94.65-86.435h-7.924l4.476-13.609 3.632.023-3.371 10.274h4.291l-1.104 3.312Z"/><path d="M617.969 259.002h-3.602l10.826-33.455c.725-2.183 2.793-3.672 5.229-3.705 2.019-.01 3.116-.008 5.137 0 4.375.02 6.058 1.74 7.077 4.572.489 1.361.53 3.278.128 4.55-1.043 3.197-1.289 3.937-2.344 7.127-.691 2.053-2.554 3.427-4.808 3.61 0 0 3.033-9.152 3.978-12.142.572-1.866-.521-4.413-3.399-4.413-2.013-.023-3.272-.01-5.281 0-1.163.015-2.184.726-2.543 1.806l-10.398 32.05Zm14.034-9.584h7.925l-4.477 13.61-3.631-.024 3.37-10.273h-4.291l1.104-3.313Z"/><path d="M649.646 232.085h3.602l-10.824 33.454c-.725 2.183-2.793 3.672-5.229 3.705-2.019.01-3.115.008-5.137 0-4.374-.02-6.057-1.739-7.076-4.572-.489-1.36-.531-3.278-.129-4.55 1.043-3.196 1.289-3.937 2.344-7.127.691-2.053 2.553-3.426 4.807-3.609 0 0-3.032 9.152-3.977 12.141-.571 1.866.521 4.413 3.399 4.413 2.014.023 3.272.011 5.281 0 1.163-.015 2.184-.726 2.543-1.806l10.396-32.049ZM446.814 454.301h-7.925l4.477-13.61 3.632.024-3.371 10.273h4.291l-1.104 3.313Z"/><path d="M429.169 471.634h-3.602l10.826-33.455c.725-2.182 2.793-3.672 5.229-3.704 2.02-.011 3.116-.009 5.137 0 4.375.019 6.058 1.739 7.077 4.572.489 1.36.53 3.278.128 4.55-1.042 3.196-1.289 3.937-2.344 7.127-.691 2.053-2.553 3.426-4.807 3.609 0 0 3.032-9.152 3.978-12.142.571-1.866-.522-4.412-3.4-4.412-2.013-.024-3.272-.011-5.28 0-1.164.015-2.185.725-2.544 1.806l-10.398 32.049Zm14.034-9.583h7.925l-4.476 13.61-3.632-.024 3.37-10.273h-4.29l1.103-3.313Z"/><path d="M460.847 444.718h3.602l-10.824 33.455c-.725 2.182-2.794 3.672-5.23 3.704-2.019.011-3.115.009-5.137 0-4.374-.019-6.057-1.739-7.076-4.572-.489-1.36-.53-3.278-.128-4.55 1.042-3.196 1.289-3.937 2.344-7.127.69-2.053 2.553-3.426 4.807-3.609 0 0-3.033 9.152-3.978 12.142-.571 1.866.521 4.412 3.4 4.412 2.013.024 3.271.011 5.28 0 1.163-.015 2.185-.725 2.544-1.806l10.396-32.049Zm94.853-86.213h-7.925l4.477-13.61 3.632.024-3.371 10.273h4.291l-1.104 3.313Z"/><path d="M538.055 375.838h-3.602l10.826-33.455c.725-2.182 2.793-3.672 5.23-3.704 2.019-.011 3.115-.009 5.137 0 4.374.019 6.057 1.739 7.076 4.572.489 1.36.53 3.278.128 4.55-1.042 3.196-1.289 3.937-2.344 7.126-.691 2.054-2.553 3.427-4.807 3.61 0 0 3.032-9.152 3.978-12.142.571-1.866-.521-4.412-3.4-4.412-2.013-.024-3.272-.011-5.28 0-1.163.015-2.185.725-2.544 1.806l-10.398 32.049Zm14.034-9.583h7.925l-4.476 13.61-3.632-.024 3.37-10.273h-4.29l1.103-3.313Z"/><path d="M569.733 348.922h3.602l-10.824 33.455c-.725 2.182-2.793 3.672-5.23 3.704-2.019.011-3.115.008-5.136 0-4.375-.02-6.058-1.739-7.077-4.572-.489-1.36-.53-3.278-.128-4.55 1.042-3.196 1.289-3.937 2.344-7.127.691-2.053 2.553-3.426 4.807-3.609 0 0-3.032 9.152-3.978 12.142-.571 1.866.522 4.412 3.4 4.412 2.013.024 3.272.011 5.28 0 1.163-.015 2.185-.725 2.544-1.806l10.396-32.049Zm94.65-86.362h-7.925l4.477-13.609 3.632.023-3.371 10.274h4.291l-1.104 3.312Z"/><path d="M646.739 279.894h-3.602l10.825-33.455c.725-2.183 2.794-3.672 5.23-3.704 2.019-.011 3.115-.009 5.137 0 4.375.019 6.058 1.739 7.076 4.571.49 1.361.531 3.278.129 4.55-1.043 3.197-1.29 3.937-2.345 7.127-.691 2.053-2.553 3.427-4.807 3.61 0 0 3.033-9.152 3.978-12.142.571-1.866-.521-4.413-3.399-4.413-2.014-.023-3.272-.01-5.281 0-1.163.016-2.185.726-2.544 1.806l-10.397 32.05Zm14.034-9.583h7.924l-4.476 13.609-3.632-.023 3.371-10.274h-4.291l1.104-3.312Z"/><path d="M678.416 252.977h3.602l-10.824 33.455c-.725 2.183-2.793 3.672-5.229 3.705-2.019.01-3.115.008-5.137 0-4.375-.02-6.058-1.74-7.076-4.572-.49-1.361-.531-3.278-.129-4.55 1.043-3.197 1.289-3.937 2.344-7.127.691-2.053 2.553-3.427 4.807-3.61 0 0-3.032 9.152-3.977 12.142-.572 1.866.521 4.413 3.399 4.413 2.013.023 3.272.01 5.28 0 1.164-.015 2.185-.726 2.544-1.806l10.396-32.05ZM475.583 475.12h-7.924l4.476-13.61 3.632.024-3.371 10.273h4.291l-1.104 3.313Z"/><path d="M457.939 492.453h-3.602l10.825-33.455c.726-2.182 2.794-3.672 5.23-3.704 2.019-.011 3.115-.009 5.137 0 4.375.019 6.058 1.739 7.076 4.572.49 1.36.531 3.278.129 4.55-1.043 3.196-1.289 3.937-2.345 7.126-.69 2.054-2.553 3.427-4.807 3.61 0 0 3.033-9.152 3.978-12.142.572-1.866-.521-4.412-3.399-4.412-2.014-.024-3.272-.011-5.281 0-1.163.015-2.184.725-2.544 1.806l-10.397 32.049Zm14.034-9.583h7.925l-4.477 13.61-3.631-.024 3.37-10.273h-4.291l1.104-3.313Z"/><path d="M489.616 465.537h3.602l-10.823 33.455c-.726 2.182-2.794 3.672-5.23 3.704-2.019.011-3.115.008-5.137 0-4.374-.02-6.057-1.739-7.076-4.572-.489-1.36-.531-3.278-.128-4.55 1.042-3.196 1.288-3.937 2.344-7.127.69-2.053 2.552-3.426 4.806-3.609 0 0-3.032 9.152-3.977 12.141-.571 1.867.521 4.413 3.399 4.413 2.014.024 3.272.011 5.281 0 1.163-.015 2.184-.725 2.544-1.806l10.395-32.049Zm96.383-86.88h-7.925l4.477-13.61 3.632.024-3.371 10.273h4.291l-1.104 3.313Z"/><path d="M568.355 395.99h-3.602l10.825-33.455c.725-2.182 2.794-3.672 5.23-3.704 2.019-.011 3.115-.009 5.137 0 4.375.019 6.058 1.739 7.076 4.572.49 1.36.531 3.278.129 4.55-1.043 3.196-1.29 3.937-2.345 7.127-.691 2.053-2.553 3.426-4.807 3.609 0 0 3.033-9.152 3.978-12.142.572-1.866-.521-4.412-3.399-4.412-2.014-.024-3.272-.011-5.281 0-1.163.015-2.184.725-2.544 1.806l-10.397 32.049Zm14.034-9.583h7.924l-4.476 13.61-3.631-.024 3.37-10.273h-4.291l1.104-3.313Z"/><path d="M600.032 369.074h3.602l-10.824 33.455c-.725 2.182-2.793 3.672-5.229 3.704-2.019.011-3.115.009-5.137 0-4.375-.019-6.058-1.739-7.076-4.572-.49-1.36-.531-3.278-.129-4.55 1.043-3.196 1.289-3.937 2.344-7.127.691-2.053 2.553-3.426 4.807-3.609 0 0-3.032 9.152-3.977 12.142-.572 1.866.521 4.412 3.399 4.412 2.014.024 3.272.011 5.281 0 1.163-.015 2.184-.725 2.543-1.806l10.396-32.049Zm94.669-86.362h-7.925l4.477-13.609 3.632.023-3.371 10.274h4.291l-1.104 3.312Z"/><path d="M677.057 300.046h-3.603l10.826-33.455c.725-2.183 2.794-3.672 5.23-3.704 2.019-.011 3.115-.009 5.137 0 4.375.019 6.058 1.739 7.076 4.571.489 1.361.531 3.278.128 4.551-1.042 3.196-1.289 3.936-2.344 7.126-.691 2.054-2.553 3.427-4.807 3.61 0 0 3.032-9.152 3.978-12.142.571-1.866-.521-4.412-3.4-4.412-2.013-.024-3.271-.011-5.28 0-1.163.015-2.185.725-2.544 1.805l-10.397 32.05Zm14.034-9.583h7.924l-4.476 13.61-3.632-.024 3.371-10.274h-4.291l1.104-3.312Z"/><path d="M708.734 273.13h3.602l-10.824 33.454c-.725 2.183-2.793 3.672-5.229 3.705-2.019.01-3.115.008-5.137 0-4.375-.02-6.058-1.74-7.076-4.572-.49-1.36-.531-3.278-.129-4.55 1.043-3.197 1.289-3.937 2.344-7.127.691-2.053 2.553-3.427 4.807-3.609 0 0-3.032 9.152-3.977 12.141-.572 1.866.521 4.413 3.399 4.413 2.013.023 3.272.01 5.28 0 1.164-.015 2.185-.726 2.544-1.806l10.396-32.049ZM817.418 178h3.599l-10.796 33.455c-.723 2.182-2.789 3.672-5.224 3.704-2.017.011-3.113.009-5.133 0-4.372-.019-6.055-1.739-7.075-4.572-.49-1.36-.532-3.278-.131-4.55 1.039-3.196 1.285-3.936 2.338-7.126.689-2.054 2.549-3.427 4.801-3.61 0 0-3.024 9.152-3.967 12.142-.57 1.866.524 4.412 3.4 4.412 2.012.024 3.27.011 5.277 0 1.163-.015 2.183-.725 2.541-1.806L817.418 178ZM384.773 555.244h-3.6l10.799-33.455c.723-2.183 2.79-3.672 5.224-3.704 2.018-.011 3.114-.009 5.134 0 4.372.019 6.056 1.739 7.075 4.571.49 1.361.532 3.279.131 4.551-1.04 3.196-1.286 3.936-2.338 7.126-.689 2.054-2.55 3.427-4.802 3.61 0 0 3.025-9.152 3.968-12.142.57-1.866-.524-4.412-3.4-4.412-2.013-.024-3.27-.011-5.278 0-1.162.015-2.183.725-2.541 1.806l-10.372 32.049Zm31.624-26.917h3.6L409.2 561.782c-.723 2.183-2.789 3.672-5.224 3.705-2.018.01-3.113.008-5.134 0-4.372-.02-6.055-1.74-7.074-4.572-.49-1.36-.533-3.278-.132-4.55 1.04-3.197 1.286-3.937 2.339-7.127.689-2.053 2.549-3.427 4.801-3.61 0 0-3.024 9.153-3.967 12.142-.57 1.866.523 4.413 3.4 4.413 2.012.023 3.27.01 5.277 0 1.163-.015 2.183-.726 2.541-1.806l10.37-32.05Zm15.086 28.105h-7.925l4.477-13.609 3.632.023-3.371 10.274h4.291l-1.104 3.312Z"/><path d="M413.839 573.766h-3.602l10.825-33.455c.725-2.183 2.794-3.672 5.23-3.704 2.019-.011 3.115-.009 5.137 0 4.375.019 6.058 1.739 7.076 4.571.49 1.361.531 3.278.129 4.551-1.043 3.196-1.29 3.936-2.345 7.126-.691 2.054-2.553 3.427-4.807 3.61 0 0 3.033-9.152 3.978-12.142.572-1.866-.521-4.412-3.399-4.412-2.014-.024-3.272-.011-5.281 0-1.163.015-2.184.725-2.544 1.805l-10.397 32.05Zm14.034-9.583h7.924l-4.476 13.609-3.632-.023 3.371-10.274h-4.291l1.104-3.312Z"/><path d="M445.516 546.85h3.602l-10.824 33.454c-.725 2.183-2.793 3.672-5.229 3.705-2.019.01-3.115.008-5.137 0-4.375-.02-6.058-1.74-7.076-4.572-.49-1.36-.531-3.278-.129-4.55 1.043-3.197 1.289-3.937 2.344-7.127.691-2.053 2.553-3.427 4.807-3.609 0 0-3.032 9.152-3.977 12.141-.572 1.866.521 4.413 3.399 4.413 2.014.023 3.272.01 5.281 0 1.163-.015 2.184-.726 2.543-1.806l10.396-32.049Zm14.663 31.142h-7.925l4.477-13.609 3.632.023-3.371 10.274h4.291l-1.104 3.312Z"/><path d="M442.535 595.326h-3.602l10.825-33.455c.725-2.183 2.794-3.672 5.23-3.705 2.019-.01 3.115-.008 5.137 0 4.375.02 6.058 1.74 7.076 4.572.49 1.36.531 3.278.129 4.55-1.043 3.197-1.29 3.937-2.345 7.127-.691 2.053-2.553 3.427-4.807 3.61 0 0 3.033-9.153 3.978-12.142.571-1.866-.521-4.413-3.399-4.413-2.014-.023-3.272-.01-5.281 0-1.163.015-2.184.726-2.544 1.806l-10.397 32.05Zm14.034-9.583h7.924l-4.476 13.609-3.632-.023 3.371-10.274h-4.291l1.104-3.312Z"/><path d="M474.212 568.409h3.602l-10.824 33.455c-.725 2.183-2.793 3.672-5.229 3.704-2.019.011-3.115.009-5.137 0-4.375-.019-6.058-1.739-7.076-4.571-.49-1.361-.531-3.278-.129-4.55 1.043-3.197 1.289-3.937 2.344-7.127.691-2.053 2.553-3.427 4.807-3.61 0 0-3.032 9.152-3.977 12.142-.572 1.866.521 4.412 3.399 4.412 2.013.024 3.272.011 5.28 0 1.164-.015 2.185-.725 2.544-1.805l10.396-32.05Zm14.737 30.402h-7.925l4.477-13.61 3.632.024-3.371 10.273h4.291l-1.104 3.313Z"/><path d="M471.305 616.144h-3.603l10.826-33.454c.725-2.183 2.794-3.672 5.23-3.705 2.019-.01 3.115-.008 5.137 0 4.374.02 6.057 1.739 7.076 4.572.489 1.36.531 3.278.128 4.55-1.042 3.196-1.289 3.937-2.344 7.127-.691 2.053-2.553 3.426-4.807 3.609 0 0 3.032-9.152 3.978-12.141.571-1.866-.521-4.413-3.4-4.413-2.013-.023-3.272-.011-5.28 0-1.163.015-2.185.726-2.544 1.806l-10.397 32.049Zm14.034-9.582h7.924l-4.476 13.609-3.632-.024 3.37-10.273h-4.29l1.104-3.312Z"/><path d="M502.982 589.228h3.602l-10.824 33.455c-.725 2.183-2.793 3.672-5.229 3.704-2.019.011-3.116.009-5.137 0-4.375-.019-6.058-1.739-7.077-4.571-.489-1.361-.53-3.279-.128-4.551 1.042-3.196 1.289-3.936 2.344-7.126.691-2.054 2.553-3.427 4.807-3.61 0 0-3.032 9.152-3.978 12.142-.571 1.866.522 4.412 3.4 4.412 2.013.024 3.272.011 5.28 0 1.163-.015 2.185-.725 2.544-1.806l10.396-32.049Zm-52.707-47.542h-3.6l10.798-33.455c.724-2.183 2.79-3.672 5.225-3.704 2.018-.011 3.113-.009 5.134 0 4.372.019 6.055 1.739 7.074 4.571.49 1.361.533 3.278.131 4.55-1.039 3.197-1.286 3.937-2.338 7.127-.689 2.054-2.55 3.427-4.802 3.61 0 0 3.025-9.152 3.968-12.142.57-1.866-.523-4.413-3.4-4.413-2.012-.023-3.27-.01-5.277 0-1.163.016-2.183.726-2.542 1.806l-10.371 32.05Zm14.016-9.583h7.925l-4.477 13.609-3.631-.023 3.37-10.274h-4.291l1.104-3.312Z"/><path d="M481.935 514.769h3.602l-10.824 33.455c-.725 2.183-2.794 3.672-5.23 3.705-2.019.01-3.115.008-5.137 0-4.374-.02-6.057-1.74-7.076-4.572-.489-1.361-.53-3.278-.128-4.55 1.042-3.197 1.289-3.937 2.344-7.127.69-2.053 2.553-3.427 4.807-3.61 0 0-3.033 9.152-3.978 12.142-.571 1.866.521 4.413 3.4 4.413 2.013.023 3.271.01 5.28 0 1.163-.015 2.184-.726 2.544-1.806l10.396-32.05Zm14.662 31.069h-7.924l4.477-13.61 3.631.024-3.37 10.273h4.29l-1.104 3.313Z"/><path d="M478.953 563.171h-3.602l10.826-33.455c.725-2.182 2.793-3.672 5.229-3.704 2.019-.011 3.116-.008 5.137 0 4.375.02 6.058 1.739 7.077 4.572.489 1.36.53 3.278.128 4.55-1.043 3.196-1.289 3.937-2.344 7.127-.691 2.053-2.554 3.426-4.808 3.609 0 0 3.033-9.152 3.978-12.141.572-1.867-.521-4.413-3.399-4.413-2.013-.024-3.272-.011-5.281 0-1.163.015-2.184.725-2.543 1.806l-10.398 32.049Zm14.034-9.583h7.925l-4.477 13.61-3.631-.024 3.37-10.273h-4.291l1.104-3.313Z"/><path d="M510.63 536.255h3.602l-10.824 33.455c-.725 2.182-2.793 3.672-5.229 3.704-2.019.011-3.115.009-5.137 0-4.374-.019-6.057-1.739-7.076-4.572-.489-1.36-.531-3.278-.129-4.55 1.043-3.196 1.289-3.937 2.344-7.126.691-2.054 2.553-3.427 4.807-3.61 0 0-3.032 9.152-3.977 12.142-.571 1.866.521 4.412 3.399 4.412 2.014.024 3.272.011 5.281 0 1.163-.015 2.184-.725 2.543-1.806l10.396-32.049Zm-94.462 125.309h-7.925l4.477-13.61 3.632.024-3.371 10.273h4.291l-1.104 3.313Z"/><path d="M398.523 678.897h-3.602l10.826-33.455c.725-2.182 2.793-3.672 5.23-3.704 2.019-.011 3.115-.009 5.136 0 4.375.019 6.058 1.739 7.077 4.572.489 1.36.53 3.278.128 4.55-1.042 3.196-1.289 3.937-2.344 7.127-.691 2.053-2.553 3.426-4.807 3.609 0 0 3.032-9.152 3.978-12.142.571-1.866-.521-4.412-3.4-4.412-2.013-.024-3.272-.011-5.28 0-1.164.015-2.185.725-2.544 1.806l-10.398 32.049Zm14.034-9.583h7.925l-4.476 13.61-3.632-.024 3.37-10.273h-4.29l1.103-3.313Z"/><path d="M430.201 651.981h3.602l-10.824 33.455c-.725 2.182-2.794 3.672-5.23 3.704-2.019.011-3.115.009-5.137 0-4.374-.019-6.057-1.739-7.076-4.572-.489-1.36-.53-3.278-.128-4.55 1.042-3.196 1.289-3.937 2.344-7.127.69-2.053 2.553-3.426 4.807-3.609 0 0-3.033 9.152-3.978 12.142-.571 1.866.521 4.412 3.4 4.412 2.013.024 3.271.011 5.28 0 1.163-.015 2.185-.725 2.544-1.806l10.396-32.049Zm95.166-85.25h-7.925l4.477-13.61 3.632.024-3.371 10.273h4.291l-1.104 3.313Z"/><path d="M507.723 584.064h-3.602l10.825-33.455c.725-2.182 2.794-3.672 5.23-3.704 2.019-.011 3.115-.009 5.137 0 4.375.019 6.058 1.739 7.076 4.572.49 1.36.531 3.278.129 4.55-1.043 3.196-1.29 3.937-2.345 7.126-.691 2.054-2.553 3.427-4.807 3.61 0 0 3.033-9.152 3.978-12.142.571-1.866-.521-4.412-3.399-4.412-2.014-.024-3.272-.011-5.281 0-1.163.015-2.185.725-2.544 1.806l-10.397 32.049Zm14.034-9.583h7.924l-4.476 13.61-3.632-.024 3.371-10.273h-4.291l1.104-3.313Z"/><path d="M539.4 557.148h3.602l-10.824 33.455c-.725 2.182-2.793 3.672-5.229 3.704-2.019.011-3.115.009-5.137 0-4.375-.019-6.058-1.739-7.076-4.572-.49-1.36-.531-3.278-.129-4.55 1.042-3.196 1.289-3.937 2.344-7.127.691-2.053 2.553-3.426 4.807-3.609 0 0-3.032 9.152-3.978 12.142-.571 1.866.522 4.412 3.4 4.412 2.013.024 3.272.011 5.28 0 1.164-.015 2.185-.725 2.544-1.806l10.396-32.049Zm-130.025 21.189h3.6l-10.796 33.455c-.724 2.182-2.79 3.672-5.224 3.704-2.018.011-3.113.009-5.134 0-4.372-.019-6.055-1.739-7.075-4.572-.49-1.36-.532-3.278-.131-4.55 1.04-3.196 1.286-3.937 2.338-7.126.689-2.054 2.549-3.427 4.802-3.61 0 0-3.025 9.152-3.968 12.142-.569 1.866.524 4.412 3.401 4.412 2.012.024 3.269.011 5.277 0 1.162-.015 2.182-.725 2.541-1.806l10.369-32.049Zm14.681 31.069h-7.925l4.477-13.61 3.632.024-3.371 10.273h4.291l-1.104 3.313Z"/><path d="M406.412 626.739h-3.603l10.826-33.455c.725-2.182 2.793-3.672 5.23-3.704 2.019-.011 3.115-.009 5.137 0 4.374.019 6.057 1.739 7.076 4.572.489 1.36.53 3.278.128 4.55-1.042 3.196-1.289 3.936-2.344 7.126-.691 2.054-2.553 3.427-4.807 3.61 0 0 3.032-9.152 3.978-12.142.571-1.866-.521-4.412-3.4-4.412-2.013-.024-3.272-.011-5.28 0-1.163.015-2.185.725-2.544 1.806l-10.397 32.049Zm14.034-9.583h7.924l-4.476 13.61-3.632-.024 3.37-10.273h-4.29l1.104-3.313Z"/><path d="M438.089 599.823h3.602l-10.824 33.454c-.725 2.183-2.793 3.672-5.23 3.705-2.019.01-3.115.008-5.136 0-4.375-.02-6.058-1.739-7.077-4.572-.489-1.36-.53-3.278-.128-4.55 1.042-3.196 1.289-3.937 2.344-7.127.691-2.053 2.553-3.426 4.807-3.609 0 0-3.032 9.152-3.978 12.141-.571 1.867.522 4.413 3.4 4.413 2.013.023 3.272.011 5.28 0 1.163-.015 2.185-.726 2.544-1.806l10.396-32.049Zm14.736 30.476h-7.924l4.477-13.61 3.631.024-3.37 10.273h4.29l-1.104 3.313Z"/><path d="M435.181 647.632h-3.602l10.826-33.455c.725-2.182 2.793-3.672 5.229-3.704 2.019-.011 3.116-.009 5.137 0 4.375.019 6.058 1.739 7.077 4.572.489 1.36.53 3.278.128 4.55-1.043 3.196-1.289 3.936-2.344 7.126-.691 2.054-2.554 3.427-4.808 3.61 0 0 3.033-9.152 3.978-12.142.572-1.866-.521-4.412-3.399-4.412-2.013-.024-3.272-.011-5.281 0-1.163.015-2.184.725-2.543 1.806l-10.398 32.049Zm14.034-9.583h7.925l-4.477 13.61-3.631-.024 3.37-10.273h-4.291l1.104-3.313Z"/><path d="M466.858 620.716h3.603l-10.824 33.455c-.726 2.182-2.794 3.672-5.23 3.704-2.019.011-3.115.008-5.137 0-4.374-.02-6.057-1.739-7.076-4.572-.489-1.36-.531-3.278-.128-4.55 1.042-3.196 1.289-3.937 2.344-7.127.69-2.053 2.553-3.426 4.806-3.609 0 0-3.032 9.152-3.977 12.141-.571 1.867.521 4.413 3.4 4.413 2.013.024 3.271.011 5.28 0 1.163-.015 2.184-.726 2.544-1.806l10.395-32.049ZM706.232 321.37h-3.6l10.799-33.455c.723-2.182 2.79-3.672 5.224-3.704 2.018-.011 3.114-.008 5.134 0 4.372.02 6.055 1.739 7.075 4.572.49 1.36.532 3.278.131 4.55-1.04 3.196-1.286 3.937-2.339 7.127-.689 2.053-2.549 3.426-4.802 3.609 0 0 3.026-9.152 3.969-12.141.57-1.867-.524-4.413-3.401-4.413-2.012-.024-3.269-.011-5.277 0-1.162.015-2.183.725-2.541 1.806l-10.372 32.049Zm31.624-26.916h3.6l-10.797 33.455c-.723 2.182-2.789 3.672-5.224 3.704-2.018.011-3.113.009-5.134 0-4.372-.019-6.055-1.739-7.075-4.572-.489-1.36-.532-3.278-.131-4.55 1.04-3.196 1.286-3.937 2.338-7.126.69-2.054 2.55-3.427 4.802-3.61 0 0-3.024 9.152-3.967 12.142-.57 1.866.523 4.412 3.4 4.412 2.012.024 3.27.011 5.277 0 1.162-.015 2.183-.725 2.541-1.806l10.37-32.049Zm15.086 28.105h-7.925l4.477-13.61 3.632.024-3.371 10.274h4.291l-1.104 3.312Z"/><path d="M735.298 339.892h-3.602l10.825-33.454c.725-2.183 2.794-3.672 5.23-3.705 2.019-.01 3.115-.008 5.137 0 4.375.02 6.058 1.74 7.076 4.572.489 1.36.531 3.278.128 4.55-1.042 3.197-1.289 3.937-2.344 7.127-.691 2.053-2.553 3.426-4.807 3.609 0 0 3.033-9.152 3.978-12.141.571-1.866-.521-4.413-3.399-4.413-2.014-.023-3.272-.01-5.281 0-1.163.015-2.185.726-2.544 1.806l-10.397 32.049Zm14.034-9.582h7.924l-4.476 13.609-3.632-.023 3.371-10.274h-4.291l1.104-3.312Z"/><path d="M766.975 312.976h3.602l-10.824 33.455c-.725 2.183-2.793 3.672-5.229 3.704-2.019.011-3.115.009-5.137 0-4.375-.019-6.058-1.739-7.076-4.571-.49-1.361-.531-3.278-.129-4.551 1.043-3.196 1.289-3.936 2.344-7.126.691-2.054 2.553-3.427 4.807-3.61 0 0-3.032 9.152-3.977 12.142-.572 1.866.521 4.412 3.399 4.412 2.013.024 3.272.011 5.28 0 1.164-.015 2.185-.725 2.544-1.806l10.396-32.049Zm14.663 31.143h-7.925l4.477-13.61 3.632.024-3.371 10.273h4.291l-1.104 3.313Z"/><path d="M763.994 361.452h-3.602l10.825-33.455c.725-2.182 2.794-3.672 5.23-3.704 2.019-.011 3.115-.009 5.137 0 4.375.019 6.058 1.739 7.076 4.572.489 1.36.531 3.278.128 4.55-1.042 3.196-1.289 3.937-2.344 7.126-.691 2.054-2.553 3.427-4.807 3.61 0 0 3.032-9.152 3.978-12.142.571-1.866-.521-4.412-3.4-4.412-2.013-.024-3.271-.011-5.28 0-1.163.015-2.185.725-2.544 1.806l-10.397 32.049Zm14.034-9.583h7.924l-4.476 13.61-3.632-.024 3.371-10.273h-4.291l1.104-3.313Z"/><path d="M795.671 334.536h3.602l-10.824 33.455c-.725 2.182-2.793 3.672-5.229 3.704-2.019.011-3.115.008-5.137 0-4.375-.02-6.058-1.739-7.076-4.572-.49-1.36-.531-3.278-.129-4.55 1.043-3.196 1.289-3.937 2.344-7.127.691-2.053 2.553-3.426 4.807-3.609 0 0-3.032 9.152-3.977 12.142-.572 1.866.521 4.412 3.399 4.412 2.013.024 3.272.011 5.28 0 1.164-.015 2.185-.725 2.544-1.806l10.396-32.049Zm14.737 30.401h-7.925l4.477-13.609 3.631.024-3.37 10.273h4.291l-1.104 3.312Z"/><path d="M792.763 382.271h-3.602l10.826-33.455c.725-2.182 2.793-3.672 5.229-3.704 2.02-.011 3.116-.009 5.137 0 4.375.019 6.058 1.739 7.077 4.571.489 1.361.53 3.279.128 4.551-1.042 3.196-1.289 3.936-2.344 7.126-.691 2.054-2.553 3.427-4.807 3.61 0 0 3.032-9.152 3.978-12.142.571-1.866-.522-4.412-3.4-4.412-2.013-.024-3.272-.011-5.28 0-1.164.015-2.185.725-2.544 1.806l-10.398 32.049Zm14.034-9.583h7.925l-4.476 13.61-3.632-.024 3.37-10.273h-4.29l1.103-3.313Z"/><path d="M824.441 355.355h3.602l-10.824 33.454c-.725 2.183-2.794 3.672-5.23 3.705-2.019.01-3.115.008-5.137 0-4.374-.02-6.057-1.739-7.076-4.572-.489-1.36-.53-3.278-.128-4.55 1.042-3.196 1.289-3.937 2.344-7.127.69-2.053 2.553-3.426 4.807-3.609 0 0-3.033 9.152-3.978 12.141-.571 1.867.521 4.413 3.4 4.413 2.013.023 3.272.011 5.28 0 1.163-.015 2.185-.726 2.544-1.806l10.396-32.049Zm-52.707-47.543h-3.6l10.798-33.455c.724-2.182 2.79-3.672 5.225-3.704 2.017-.011 3.113-.009 5.133 0 4.373.019 6.056 1.739 7.075 4.572.49 1.36.532 3.278.131 4.55-1.04 3.196-1.286 3.937-2.338 7.127-.689 2.053-2.55 3.426-4.802 3.609 0 0 3.025-9.152 3.968-12.142.57-1.866-.524-4.412-3.4-4.412-2.012-.024-3.27-.011-5.278 0-1.162.015-2.182.725-2.541 1.806l-10.371 32.049Zm14.016-9.583h7.925l-4.477 13.61-3.631-.024 3.37-10.273h-4.291l1.104-3.313Z"/><path d="M803.393 280.896h3.602l-10.823 33.455c-.726 2.182-2.794 3.672-5.23 3.704-2.019.011-3.115.009-5.137 0-4.374-.019-6.057-1.739-7.076-4.572-.489-1.36-.531-3.278-.128-4.55 1.042-3.196 1.288-3.937 2.344-7.127.69-2.053 2.552-3.426 4.806-3.609 0 0-3.032 9.152-3.977 12.142-.571 1.866.521 4.412 3.399 4.412 2.014.024 3.272.011 5.281 0 1.163-.015 2.184-.725 2.544-1.806l10.395-32.049ZM737.626 427.69h-7.924l4.477-13.609 3.631.023-3.37 10.274h4.29l-1.104 3.312Z"/><path d="M719.982 445.024h-3.602l10.826-33.455c.725-2.183 2.793-3.672 5.229-3.705 2.019-.01 3.116-.008 5.137 0 4.375.02 6.058 1.74 7.077 4.572.489 1.36.53 3.278.128 4.55-1.043 3.197-1.289 3.937-2.344 7.127-.691 2.053-2.554 3.427-4.808 3.61 0 0 3.033-9.153 3.979-12.142.571-1.866-.522-4.413-3.4-4.413-2.013-.023-3.272-.01-5.28 0-1.164.015-2.185.726-2.544 1.806l-10.398 32.05Zm14.034-9.583h7.925l-4.477 13.609-3.631-.023 3.37-10.274h-4.291l1.104-3.312Z"/><path d="M751.659 418.107h3.603l-10.824 33.455c-.725 2.183-2.794 3.672-5.23 3.704-2.019.011-3.115.009-5.137 0-4.374-.019-6.057-1.739-7.076-4.571-.489-1.361-.531-3.278-.128-4.55 1.042-3.197 1.289-3.937 2.344-7.127.69-2.054 2.553-3.427 4.806-3.61 0 0-3.032 9.152-3.977 12.142-.571 1.866.521 4.412 3.4 4.412 2.013.024 3.271.011 5.28 0 1.163-.015 2.184-.725 2.544-1.805l10.395-32.05Zm95.167-85.25h-7.925l4.477-13.609 3.632.023-3.371 10.274h4.291l-1.104 3.312Z"/><path d="M829.182 350.191h-3.602l10.825-33.455c.725-2.183 2.794-3.672 5.23-3.705 2.019-.01 3.115-.008 5.137 0 4.375.02 6.058 1.74 7.076 4.572.489 1.36.531 3.278.128 4.55-1.042 3.197-1.289 3.937-2.344 7.127-.691 2.053-2.553 3.427-4.807 3.61 0 0 3.032-9.153 3.978-12.142.571-1.866-.521-4.413-3.4-4.413-2.013-.023-3.271-.01-5.28 0-1.163.015-2.185.726-2.544 1.806l-10.397 32.05Zm55.293-62.212h7.924l-4.476 13.61-3.632-.024 3.371-10.273h-4.291l1.104-3.313Z"/><path d="M902.118 270.646h3.602L894.896 304.1c-.725 2.183-2.793 3.672-5.229 3.705-2.019.01-3.115.008-5.137 0-4.375-.02-6.058-1.739-7.076-4.572-.49-1.36-.531-3.278-.129-4.55 1.042-3.196 1.289-3.937 2.344-7.127.691-2.053 2.553-3.426 4.807-3.609 0 0-3.032 9.152-3.978 12.141-.571 1.867.522 4.413 3.4 4.413 2.013.023 3.272.011 5.28 0 1.164-.015 2.185-.726 2.544-1.806l10.396-32.049Zm-171.284 73.817h3.599l-10.795 33.455c-.724 2.183-2.79 3.672-5.224 3.705-2.018.01-3.114.008-5.134 0-4.372-.02-6.055-1.74-7.075-4.572-.49-1.36-.532-3.278-.131-4.55 1.04-3.197 1.286-3.937 2.338-7.127.689-2.053 2.549-3.427 4.802-3.61 0 0-3.025 9.153-3.968 12.142-.57 1.866.524 4.413 3.4 4.413 2.013.023 3.27.01 5.278 0 1.162-.015 2.182-.726 2.541-1.806l10.369-32.05Zm14.681 31.069h-7.925l4.477-13.61 3.632.024-3.371 10.273h4.291l-1.104 3.313Z"/><path d="M727.87 392.865h-3.602l10.826-33.454c.725-2.183 2.793-3.672 5.23-3.705 2.019-.011 3.115-.008 5.137 0 4.374.02 6.057 1.739 7.076 4.572.489 1.36.53 3.278.128 4.55-1.042 3.196-1.289 3.937-2.344 7.127-.691 2.053-2.553 3.426-4.807 3.609 0 0 3.032-9.152 3.978-12.141.571-1.867-.521-4.413-3.4-4.413-2.013-.024-3.272-.011-5.28 0-1.164.015-2.185.726-2.544 1.806l-10.398 32.049Zm14.034-9.583h7.925l-4.476 13.61-3.632-.024 3.37-10.273h-4.29l1.103-3.313Z"/><path d="M759.548 365.949h3.602l-10.824 33.455c-.725 2.182-2.794 3.672-5.23 3.704-2.019.011-3.115.009-5.136 0-4.375-.019-6.058-1.739-7.077-4.572-.489-1.36-.53-3.278-.128-4.55 1.042-3.196 1.289-3.936 2.344-7.126.691-2.054 2.553-3.427 4.807-3.61 0 0-3.032 9.152-3.978 12.142-.571 1.866.522 4.412 3.4 4.412 2.013.024 3.272.011 5.28 0 1.163-.015 2.185-.725 2.544-1.806l10.396-32.049Zm14.736 30.476h-7.924l4.476-13.61 3.632.024-3.371 10.273h4.291l-1.104 3.313Z"/><path d="M756.64 413.758h-3.602l10.825-33.454c.726-2.183 2.794-3.672 5.23-3.705 2.019-.01 3.115-.008 5.137 0 4.375.02 6.058 1.739 7.076 4.572.49 1.36.531 3.278.129 4.55-1.043 3.197-1.289 3.937-2.345 7.127-.69 2.053-2.553 3.426-4.807 3.609 0 0 3.033-9.152 3.978-12.141.572-1.866-.521-4.413-3.399-4.413-2.014-.023-3.272-.011-5.281 0-1.163.015-2.184.726-2.544 1.806l-10.397 32.049Zm14.034-9.582h7.925l-4.477 13.609-3.631-.023 3.37-10.274h-4.291l1.104-3.312Z"/><path d="M788.317 386.842h3.602l-10.824 33.455c-.725 2.183-2.793 3.672-5.229 3.704-2.019.011-3.115.009-5.137 0-4.374-.019-6.057-1.739-7.076-4.571-.489-1.361-.531-3.279-.129-4.551 1.043-3.196 1.289-3.936 2.344-7.126.691-2.054 2.553-3.427 4.807-3.61 0 0-3.032 9.152-3.977 12.142-.571 1.866.521 4.412 3.399 4.412 2.014.024 3.272.011 5.281 0 1.163-.015 2.184-.725 2.543-1.806l10.396-32.049Z"/></g><defs><clipPath id="a"><path fill="#fff" d="M0 0h1440v1000H0z"/></clipPath><clipPath id="c"><path fill="#fff" transform="translate(376 178)" d="M0 0h689v644H0z"/></clipPath><linearGradient id="b" x1="435.5" y1="1000" x2="1061" y2="0" gradientUnits="userSpaceOnUse"><stop stop-color="#323264"/><stop offset=".506" stop-color="#323264"/><stop offset="1" stop-color="#7A425E"/></linearGradient></defs></svg>